<svg width="345" height="59" viewBox="0 0 345 59" fill="none" xmlns="http://www.w3.org/2000/svg">
<path d="M102.576 24.4427C102.576 26.5743 102.185 28.5865 101.415 30.4794C100.645 32.3777 99.5871 34.0265 98.242 35.4366C96.9024 36.8414 95.3295 37.9478 93.518 38.756C91.7119 39.5695 89.7919 39.9709 87.758 39.9709H81.1681V45.5953C81.1681 46.7885 80.7722 47.8027 79.9803 48.6326C79.1885 49.4624 78.2231 49.88 77.0841 49.88C75.9451 49.88 74.9797 49.4624 74.1878 48.6326C73.3959 47.8027 73 46.7885 73 45.5953V13.1939C73 12.0007 73.3959 10.9865 74.1878 10.1566C74.9797 9.32681 75.9451 8.90918 77.0841 8.90918H87.758C89.7919 8.90918 91.7119 9.31596 93.518 10.1241C95.3295 10.9322 96.9024 12.0441 98.242 13.4488C99.5871 14.8536 100.645 16.5078 101.415 18.4007C102.185 20.299 102.576 22.3112 102.576 24.4427V24.4427ZM94.402 24.4427C94.402 23.5044 94.2285 22.6095 93.8868 21.758C93.5397 20.9065 93.0624 20.158 92.4495 19.518C91.842 18.8834 91.1315 18.379 90.318 18.021C89.5044 17.6577 88.6529 17.4733 87.758 17.4733H81.1681V31.4068H87.758C88.6529 31.4068 89.5044 31.2278 90.318 30.8644C91.1315 30.501 91.842 30.0021 92.4495 29.3621C93.0624 28.7221 93.5397 27.9899 93.8868 27.16C94.2285 26.3302 94.402 25.419 94.402 24.4427V24.4427ZM118.087 19.0082C119.915 19.2251 121.635 19.7783 123.24 20.6732C124.845 21.5682 126.228 22.7071 127.389 24.0902C128.544 25.4733 129.461 27.0516 130.128 28.8197C130.801 30.5878 131.137 32.4536 131.137 34.4116V45.7255C131.137 46.8753 130.73 47.857 129.917 48.6651C129.103 49.4732 128.192 49.88 127.172 49.88C125.751 49.88 124.612 49.1966 123.761 47.8353C123.555 47.9221 123.37 48.0143 123.207 48.1227C123.05 48.2258 122.887 48.3234 122.719 48.4102C121.748 48.8766 120.751 49.24 119.736 49.4949C118.679 49.7499 117.561 49.88 116.379 49.88C113.331 49.88 110.608 49.0177 108.211 47.2875C105.814 45.5627 104.024 43.339 102.841 40.6109C102.44 39.6292 102.12 38.6312 101.898 37.6061C101.675 36.5865 101.561 35.518 101.561 34.4116C101.561 33.3051 101.675 32.2421 101.898 31.217C102.12 30.1919 102.44 29.1939 102.841 28.2122C104.024 25.4407 105.814 23.2061 108.211 21.5031C110.608 19.8 113.331 18.9431 116.379 18.9431C116.704 18.9431 117.003 18.9431 117.263 18.9431C117.529 18.9431 117.805 18.9648 118.087 19.0082V19.0082ZM116.319 41.5709C117.252 41.5709 118.142 41.3865 118.972 41.0285C119.807 40.6651 120.528 40.1661 121.136 39.5261C121.748 38.8861 122.237 38.1322 122.6 37.2536C122.969 36.3804 123.148 35.4366 123.148 34.4116C123.148 33.4732 122.969 32.5675 122.6 31.6943C122.237 30.821 121.738 30.0563 121.108 29.3946C120.474 28.7329 119.742 28.2122 118.912 27.8271C118.077 27.4475 117.214 27.2522 116.319 27.2522C115.424 27.2522 114.573 27.4475 113.759 27.8271C112.946 28.2122 112.224 28.7329 111.595 29.3946C110.966 30.0563 110.467 30.821 110.098 31.6943C109.735 32.5675 109.551 33.4732 109.551 34.4116C109.551 35.3932 109.746 36.3207 110.131 37.1939C110.516 38.0672 111.026 38.821 111.655 39.461C112.284 40.101 113.005 40.6109 113.819 40.996C114.633 41.3756 115.468 41.5709 116.319 41.5709V41.5709ZM151.471 18.8183C152.566 18.8183 153.483 19.2522 154.215 20.1255C154.947 21.0041 155.311 21.9261 155.311 22.9078C155.311 24.0143 154.915 24.9851 154.123 25.8149C153.331 26.6448 152.447 27.0624 151.471 27.0624H140.981C140.493 27.0624 140.075 27.2088 139.734 27.5126C139.386 27.8055 139.213 28.2339 139.213 28.7872C139.213 29.3838 139.386 29.8448 139.734 30.1594C140.075 30.4794 140.493 30.6421 140.981 30.6421H147.869C149.133 30.6421 150.299 30.9187 151.378 31.4719C152.452 32.0251 153.391 32.7627 154.182 33.6793C154.974 34.596 155.593 35.5614 156.043 36.5865C156.487 37.6061 156.715 38.756 156.715 40.036C156.753 41.4407 156.52 42.7641 156.01 44.0007C155.506 45.2373 154.822 46.2787 153.971 47.1302C153.114 47.9817 152.121 48.6543 150.982 49.1424C149.843 49.636 148.563 49.88 147.137 49.88H135.921C134.863 49.88 133.946 49.4949 133.176 48.7302C132.406 47.96 132.016 47.0055 132.016 45.8502C132.016 44.7871 132.384 43.8163 133.117 42.9431C133.849 42.0699 134.738 41.6143 135.796 41.5709H147.018C148.113 41.5709 148.666 41.061 148.666 40.036C148.666 38.8861 148.113 38.3112 147.018 38.3112H140.308C139.094 38.3112 137.944 38.0455 136.864 37.5139C135.791 36.977 134.852 36.2448 134.06 35.3065C133.268 34.3682 132.65 33.3485 132.2 32.2421C131.755 31.1302 131.527 29.937 131.527 28.6624C131.527 27.3824 131.761 26.1458 132.233 24.9526C132.699 23.7594 133.339 22.718 134.153 21.8231C134.966 20.9282 135.921 20.2122 137.016 19.6807C138.117 19.1492 139.316 18.8617 140.612 18.8183H151.471V18.8183ZM176.984 18.8183C178.079 18.8183 178.996 19.2522 179.728 20.1255C180.46 21.0041 180.824 21.9261 180.824 22.9078C180.824 24.0143 180.428 24.9851 179.636 25.8149C178.844 26.6448 177.96 27.0624 176.984 27.0624H166.494C166.006 27.0624 165.588 27.2088 165.247 27.5126C164.9 27.8055 164.726 28.2339 164.726 28.7872C164.726 29.3838 164.9 29.8448 165.247 30.1594C165.588 30.4794 166.006 30.6421 166.494 30.6421H173.388C174.646 30.6421 175.812 30.9187 176.892 31.4719C177.971 32.0251 178.904 32.7627 179.696 33.6793C180.487 34.596 181.111 35.5614 181.556 36.5865C182.006 37.6061 182.228 38.756 182.228 40.036C182.266 41.4407 182.033 42.7641 181.529 44.0007C181.019 45.2373 180.336 46.2787 179.484 47.1302C178.633 47.9817 177.635 48.6543 176.496 49.1424C175.357 49.636 174.077 49.88 172.656 49.88H161.434C160.376 49.88 159.465 49.4949 158.689 48.7302C157.919 47.96 157.534 47.0055 157.534 45.8502C157.534 44.7871 157.898 43.8163 158.63 42.9431C159.362 42.0699 160.257 41.6143 161.315 41.5709H172.531C173.632 41.5709 174.18 41.061 174.18 40.036C174.18 38.8861 173.632 38.3112 172.531 38.3112H165.827C164.607 38.3112 163.457 38.0455 162.378 37.5139C161.304 36.977 160.365 36.2448 159.574 35.3065C158.782 34.3682 158.163 33.3485 157.713 32.2421C157.268 31.1302 157.046 29.937 157.046 28.6624C157.046 27.3824 157.279 26.1458 157.746 24.9526C158.212 23.7594 158.852 22.718 159.666 21.8231C160.479 20.9282 161.434 20.2122 162.535 19.6807C163.631 19.1492 164.829 18.8617 166.131 18.8183H176.984V18.8183ZM197.008 18.9431C198.961 18.9431 200.832 19.3716 202.622 20.2231C204.412 21.0746 205.984 22.2136 207.346 23.6454C208.707 25.0719 209.797 26.7099 210.611 28.5648C211.419 30.4197 211.826 32.3668 211.826 34.4116C211.826 35.518 211.43 36.3912 210.638 37.0312C209.846 37.6712 208.859 37.9695 207.682 37.9261H191.46C192.805 40.356 194.654 41.5709 197.008 41.5709C197.659 41.5709 198.207 41.5058 198.657 41.3756C199.102 41.2509 199.498 41.1044 199.845 40.9309C200.192 40.7627 200.534 40.6109 200.881 40.4861C201.228 40.356 201.624 40.2909 202.074 40.2909C202.925 40.3343 203.668 40.5892 204.298 41.061C204.927 41.5275 205.393 42.1132 205.697 42.8183C206.006 43.518 206.104 44.2773 206.006 45.0854C205.903 45.8936 205.545 46.6421 204.938 47.32C203.842 48.2583 202.622 48.9092 201.277 49.2726C199.937 49.636 198.516 49.8366 197.008 49.88C195.061 49.9668 193.19 49.5926 191.4 48.7627C189.61 47.9275 188.037 46.7993 186.676 45.3729C185.315 43.9465 184.235 42.276 183.443 40.356C182.652 38.436 182.256 36.4563 182.256 34.4116C182.256 32.4102 182.652 30.4685 183.443 28.5973C184.235 26.7207 185.304 25.0719 186.643 23.6454C187.988 22.2136 189.551 21.0746 191.34 20.2231C193.13 19.3716 195.018 18.9431 197.008 18.9431V18.9431ZM202.562 30.8319C201.868 29.5139 201.054 28.5865 200.121 28.0549C199.183 27.518 198.147 27.2522 197.008 27.2522C195.831 27.2522 194.784 27.518 193.868 28.0549C192.957 28.5865 192.154 29.5139 191.46 30.8319H202.562Z" fill="white"/>
<path d="M273.873 49.9451C272.778 49.9451 271.861 49.5709 271.129 48.8224C270.402 48.0794 269.995 47.0868 269.914 45.8502V34.0265C269.952 31.9817 270.37 30.0563 271.161 28.2448C271.953 26.4333 273.011 24.855 274.334 23.5153C275.652 22.1756 277.198 21.1072 278.966 20.3207C280.734 19.5289 282.616 19.095 284.607 19.0082C285.746 19.0082 286.69 19.415 287.443 20.2231C288.192 21.0312 288.61 22.0129 288.691 23.1627C288.691 24.3126 288.306 25.2834 287.536 26.0699C286.76 26.8617 285.805 27.2739 284.666 27.3173C283.734 27.3173 282.86 27.5017 282.047 27.8597C281.233 28.2231 280.523 28.7221 279.91 29.3621C279.302 30.0021 278.814 30.756 278.451 31.6346C278.082 32.5078 277.903 33.4516 277.903 34.4766V46.1051C277.816 47.217 277.42 48.1336 276.71 48.855C275.999 49.5817 275.056 49.9451 273.873 49.9451V49.9451Z" fill="white"/>
<path d="M312.257 9.16956C313.315 9.16956 314.237 9.56006 315.028 10.3519C315.826 11.1384 316.222 12.1472 316.222 13.3838V34.4116C316.222 36.4997 315.826 38.4794 315.028 40.356C314.237 42.2326 313.163 43.8706 311.801 45.2753C310.44 46.6855 308.862 47.8028 307.072 48.6326C305.287 49.4624 303.416 49.8801 301.464 49.8801C299.511 49.8801 297.64 49.4733 295.856 48.6651C294.066 47.857 292.493 46.7451 291.126 45.3404C289.765 43.9357 288.68 42.2923 287.866 40.4211C287.053 38.5445 286.646 36.5431 286.646 34.4116C286.646 32.3235 287.042 30.3438 287.834 28.4672C288.626 26.596 289.705 24.9526 291.066 23.5479C292.428 22.1377 294.006 21.0204 295.791 20.1906C297.58 19.3607 299.473 18.9431 301.464 18.9431C303.904 18.9431 306.155 19.518 308.233 20.6733V13.3241C308.233 12.7655 308.341 12.234 308.569 11.7241C308.791 11.2143 309.084 10.7641 309.453 10.379C309.816 9.99939 310.245 9.70108 310.733 9.48413C311.221 9.2726 311.725 9.16956 312.257 9.16956V9.16956ZM301.464 27.2523C300.531 27.2523 299.647 27.4475 298.812 27.8272C297.976 28.2123 297.244 28.7329 296.615 29.3946C295.986 30.0563 295.487 30.8211 295.123 31.6943C294.755 32.5675 294.57 33.4733 294.57 34.4116C294.57 35.3933 294.755 36.3207 295.123 37.194C295.487 38.0672 295.986 38.8211 296.615 39.4611C297.244 40.1011 297.976 40.6109 298.812 40.996C299.647 41.3757 300.531 41.5709 301.464 41.5709C302.359 41.5709 303.21 41.3757 304.024 40.996C304.837 40.6109 305.559 40.0902 306.188 39.4285C306.817 38.7668 307.316 38.0129 307.685 37.1614C308.048 36.3099 308.233 35.3933 308.233 34.4116C308.233 33.3919 308.048 32.4428 307.685 31.5696C307.316 30.6963 306.817 29.937 306.188 29.297C305.559 28.6624 304.837 28.158 304.024 27.7946C303.21 27.4367 302.359 27.2523 301.464 27.2523Z" fill="white"/>
<path d="M231.796 47.0651C231.47 47.9221 230.95 48.6 230.239 49.1099C229.529 49.6251 228.764 49.88 227.95 49.88C227.18 49.88 226.426 49.6034 225.694 49.0502C224.962 48.497 224.436 47.8353 224.11 47.0651L211.365 14.9187C210.958 13.8122 210.99 12.7167 211.457 11.6265C211.923 10.5417 212.688 9.76614 213.746 9.29428C214.803 8.8658 215.85 8.89834 216.886 9.3919C217.922 9.88004 218.643 10.699 219.05 11.8489L227.95 33.7065L236.731 11.8489C237.138 10.699 237.86 9.88004 238.896 9.3919C239.931 8.89834 240.978 8.8658 242.036 9.29428C243.094 9.76614 243.847 10.5417 244.292 11.6265C244.742 12.7167 244.759 13.8122 244.357 14.9187L231.796 47.0651ZM254.261 18.9431C256.208 18.9431 258.079 19.3716 259.869 20.2231C261.659 21.0746 263.232 22.2136 264.593 23.6455C265.955 25.0719 267.045 26.7099 267.858 28.5648C268.672 30.4197 269.079 32.3668 269.079 34.4116C269.079 35.518 268.683 36.3912 267.885 37.0312C267.094 37.6712 266.112 37.9695 264.929 37.9261H248.712C250.052 40.356 251.902 41.5709 254.261 41.5709C254.912 41.5709 255.46 41.5058 255.904 41.3756C256.355 41.2509 256.75 41.1044 257.098 40.9309C257.439 40.7628 257.786 40.6109 258.134 40.4861C258.475 40.356 258.871 40.2909 259.321 40.2909C260.173 40.3343 260.916 40.5892 261.545 41.0611C262.174 41.5275 262.646 42.1133 262.95 42.8183C263.254 43.518 263.357 44.2773 263.254 45.0855C263.15 45.8936 262.798 46.6421 262.185 47.32C261.089 48.2583 259.869 48.9092 258.529 49.2726C257.184 49.636 255.763 49.8367 254.261 49.88C252.308 49.9668 250.437 49.5926 248.647 48.7627C246.863 47.9275 245.285 46.7994 243.923 45.3729C242.562 43.9465 241.488 42.276 240.691 40.356C239.899 38.436 239.503 36.4563 239.503 34.4116C239.503 32.4102 239.899 30.4685 240.691 28.5973C241.488 26.7207 242.551 25.0719 243.896 23.6455C245.236 22.2136 246.798 21.0746 248.588 20.2231C250.378 19.3716 252.265 18.9431 254.261 18.9431V18.9431ZM259.809 30.8319C259.115 29.5139 258.307 28.5865 257.369 28.055C256.436 27.518 255.4 27.2522 254.261 27.2522C253.079 27.2522 252.032 27.518 251.121 28.055C250.204 28.5865 249.401 29.5139 248.712 30.8319H259.809V30.8319Z" fill="white"/>
<path d="M321.597 27.0733C319.872 27.0733 318.473 25.6739 318.473 23.9492C318.473 22.2245 319.872 20.8251 321.597 20.8251H341.881C343.606 20.8251 345 22.2245 345 23.9492C345 25.6739 343.606 27.0733 341.881 27.0733H321.597ZM321.597 37.3621C319.872 37.3621 318.473 35.9628 318.473 34.238C318.473 32.5133 319.872 31.1139 321.597 31.1139H341.881C343.606 31.1139 345 32.5133 345 34.238C345 35.9628 343.606 37.3621 341.881 37.3621H321.597ZM321.597 47.857C319.872 47.857 318.473 46.4577 318.473 44.7329C318.473 43.0082 319.872 41.6089 321.597 41.6089H341.881C343.606 41.6089 345 43.0082 345 44.7329C345 46.4577 343.606 47.857 341.881 47.857H321.597Z" fill="white"/>
<path fill-rule="evenodd" clip-rule="evenodd" d="M0 58.061H29.0332C45.0007 58.061 58.061 44.9953 58.061 29.0278V0H29.0278C13.0603 0 0 13.0603 0 29.0278V58.061ZM12.3444 33.3397C10.7119 31.7342 10.6902 29.1092 12.2956 27.4766C13.901 25.8441 16.5315 25.8224 18.1641 27.4278L25.0522 34.1912L40.0163 19.2597C41.6434 17.6434 44.2685 17.6488 45.8847 19.2759C47.4956 20.8976 47.4902 23.5227 45.8685 25.139L28.4312 42.5383C25.8875 44.979 24.2549 44.941 21.8902 42.7119L12.3444 33.3397V33.3397Z" fill="white"/>
</svg>
