<?xml version="1.0" encoding="UTF-8" standalone="no"?>
<svg
   xmlns:dc="http://purl.org/dc/elements/1.1/"
   xmlns:cc="http://creativecommons.org/ns#"
   xmlns:rdf="http://www.w3.org/1999/02/22-rdf-syntax-ns#"
   xmlns:svg="http://www.w3.org/2000/svg"
   xmlns="http://www.w3.org/2000/svg"
   xmlns:sodipodi="http://sodipodi.sourceforge.net/DTD/sodipodi-0.dtd"
   xmlns:inkscape="http://www.inkscape.org/namespaces/inkscape"
   version="1.1"
   id="svg2"
   xml:space="preserve"
   width="4946.6665"
   height="4946.6665"
   viewBox="0 0 4946.6665 4946.6665"
   sodipodi:docname="20945292.eps"><metadata
     id="metadata8"><rdf:RDF><cc:Work
         rdf:about=""><dc:format>image/svg+xml</dc:format><dc:type
           rdf:resource="http://purl.org/dc/dcmitype/StillImage" /></cc:Work></rdf:RDF></metadata><defs
     id="defs6"><clipPath
       clipPathUnits="userSpaceOnUse"
       id="clipPath22"><path
         d="m 18847,4866.6 c -1680.2,0 -2963.8,235 -3475.7,338.9 -1608.1,326.7 -4515.7,917.2 -6951.25,3052.1 H 28530.4 C 28167.2,7939 27830,7697 27544,7491.8 24580.1,5365.1 21293.4,4866.6 18847,4866.6 m -12864.62,6502 c -2366.57,4532.2 -1553.54,10532.6 1079.48,14684.1 556.96,878.2 3498.94,5752.2 9478.54,6533.8 593.4,77.6 1203.7,116.8 1821.6,116.8 1158.9,0 2347.1,-137.7 3513.4,-418.4 -1365.1,-782.3 -2009.4,-2107.2 -2009.4,-2107.2 0,0 -800,283.7 -1781.2,283.7 -1314.4,0 -2954.3,-508.6 -3434.9,-2889.3 -1823.4,-404.7 -2750,-2003.6 -2643,-3506 l -5121.87,132.5 c -9.95,0.3 -19.9,0.4 -29.81,0.4 -303.81,0 -595.71,-120.3 -811.35,-335.2 -222.68,-222 -344.52,-525.5 -337.09,-839.6 l 275.6,-11655.6 m 25685.62,2244.1 115.8,7999 c 51.4,26.3 100.6,56.4 146.9,89.7 570.8,-2742.1 440,-5606.8 -262.7,-8088.7 m -2592.2,14264.8 c -162.1,12.9 -331.2,21.4 -507.3,25.3 -70.9,1.5 -127.9,54.4 -129.2,120 -2.5,126.6 -12.6,348.1 -48.6,628.6 240.2,-249.6 468.6,-508 685.1,-773.9"
         id="path20" /></clipPath><linearGradient
       x1="0"
       y1="0"
       x2="1"
       y2="0"
       gradientUnits="userSpaceOnUse"
       gradientTransform="matrix(-24769.5,30762.2,30762.2,24769.5,35890.8,-3349.3)"
       spreadMethod="pad"
       id="linearGradient28"><stop
         style="stop-opacity:1;stop-color:#dae3fe"
         offset="0"
         id="stop24" /><stop
         style="stop-opacity:1;stop-color:#e9effd"
         offset="1"
         id="stop26" /></linearGradient><clipPath
       clipPathUnits="userSpaceOnUse"
       id="clipPath38"><path
         d="M 31141.4,8257.6 H 6500.83 c -250.6,0 -455.65,204.9 -455.65,455.2 l -62.8,2655.8 -275.6,11655.6 c -7.43,314.1 114.41,617.6 337.09,839.6 215.64,214.9 507.54,335.2 811.35,335.2 9.91,0 19.86,-0.1 29.81,-0.4 l 5121.87,-132.5 c 13.1,-183.9 41.6,-366 85.9,-544.6 l -5113.07,137.2 c -7.21,0.2 -14.42,0.3 -21.62,0.3 -213.19,0 -417.99,-84.6 -569.35,-235.5 -156.47,-156.1 -242.52,-369.7 -236.97,-590.6 L 6495.03,9149.6 c 0,-237.1 193.99,-431.1 431.09,-431.1 H 30547.1 c 237.1,0 431.1,194 431.1,431.1 l 185.6,12331.5 61.2,-0.5 c 3.4,-0.1 6.9,-0.1 10.3,-0.1 196.7,0 384.4,47.1 548.5,131.2 l -115.8,-7999 -71,-4899.9 c 0,-250.3 -205,-455.2 -455.6,-455.2"
         id="path36" /></clipPath><linearGradient
       x1="0"
       y1="0"
       x2="1"
       y2="0"
       gradientUnits="userSpaceOnUse"
       gradientTransform="matrix(-5819.56,17458.7,-17458.7,-5819.56,21071.7,9346.2)"
       spreadMethod="pad"
       id="linearGradient44"><stop
         style="stop-opacity:1;stop-color:#09005d"
         offset="0"
         id="stop40" /><stop
         style="stop-opacity:1;stop-color:#1a0f91"
         offset="1"
         id="stop42" /></linearGradient><clipPath
       clipPathUnits="userSpaceOnUse"
       id="clipPath54"><path
         d="m 6926.12,8718.5 c -237.1,0 -431.09,194 -431.09,431.1 l -343.24,13683.3 c -5.55,220.9 80.5,434.5 236.97,590.6 151.36,150.9 356.16,235.5 569.35,235.5 7.2,0 14.41,-0.1 21.62,-0.3 l 5113.07,-137.2 c 82.9,-334.5 221.1,-655.8 416.1,-948.1 -2468.3,59.9 -4294.23,105.6 -4431.47,116.8 -62.6,5 -122.73,8.1 -180.24,8.1 -814.18,0 -1117.29,-601 -869.97,-4427.9 149.22,-2309.2 189.5,-6123.1 243.87,-7875.2 16.19,-521.8 442.63,-935.7 964.6,-937.2 3944.91,-10.8 19064.31,-54.1 20070.81,-84.1 135.7,-4 262.2,-6.2 379.6,-6.2 885.1,0 1260.1,123 1251.5,495 -24.8,1062.4 -15.6,10470.8 45.4,11283.4 9.9,131.6 -15,245.9 -72,345.4 l 868.5,-7.2 -53,-3609.4 c -0.3,-18.8 14.7,-34.2 33.5,-34.5 h 0.5 c 18.5,0 33.7,14.9 33.9,33.5 l 53,3609.8 316.4,-2.6 -185.6,-12331.5 c 0,-237.1 -194,-431.1 -431.1,-431.1 H 6926.12 m 23812.58,7677.6 c -17.6,-0.3 -34.2,-14.7 -34.4,-33.4 l -15.3,-1042.5 c -0.3,-18.8 14.7,-34.2 33.4,-34.5 h 0.5 c 18.6,0 33.7,14.9 34,33.5 l 15.3,1042.5 c 0.3,18.7 -14.7,34.2 -33.5,34.4"
         id="path52" /></clipPath><linearGradient
       x1="0"
       y1="0"
       x2="1"
       y2="0"
       gradientUnits="userSpaceOnUse"
       gradientTransform="matrix(32100.6,-36664.4,36664.4,32100.6,8094.2,27953.5)"
       spreadMethod="pad"
       id="linearGradient60"><stop
         style="stop-opacity:1;stop-color:#ff928e"
         offset="0"
         id="stop56" /><stop
         style="stop-opacity:1;stop-color:#fe7062"
         offset="1"
         id="stop58" /></linearGradient><clipPath
       clipPathUnits="userSpaceOnUse"
       id="clipPath70"><path
         d="m 30722.9,15285.7 h -0.5 c -18.7,0.3 -33.7,15.7 -33.4,34.5 l 15.3,1042.5 c 0.2,18.7 16.8,33.1 34.4,33.4 18.8,-0.2 33.8,-15.7 33.5,-34.4 l -15.3,-1042.5 c -0.3,-18.6 -15.4,-33.5 -34,-33.5"
         id="path68" /></clipPath><linearGradient
       x1="0"
       y1="0"
       x2="1"
       y2="0"
       gradientUnits="userSpaceOnUse"
       gradientTransform="matrix(32100.6,-36664.4,36664.4,32100.6,8094.2,27953.5)"
       spreadMethod="pad"
       id="linearGradient76"><stop
         style="stop-opacity:1;stop-color:#ffbab8"
         offset="0"
         id="stop72" /><stop
         style="stop-opacity:1;stop-color:#fea59c"
         offset="1"
         id="stop74" /></linearGradient><clipPath
       clipPathUnits="userSpaceOnUse"
       id="clipPath86"><path
         d="m 30760.5,17840.4 h -0.5 c -18.8,0.3 -33.8,15.7 -33.5,34.5 l 53,3609.4 67.9,-0.6 -53,-3609.8 c -0.2,-18.6 -15.4,-33.5 -33.9,-33.5"
         id="path84" /></clipPath><linearGradient
       x1="0"
       y1="0"
       x2="1"
       y2="0"
       gradientUnits="userSpaceOnUse"
       gradientTransform="matrix(32100.6,-36664.4,36664.4,32100.6,8094.2,27953.5)"
       spreadMethod="pad"
       id="linearGradient92"><stop
         style="stop-opacity:1;stop-color:#ffbab8"
         offset="0"
         id="stop88" /><stop
         style="stop-opacity:1;stop-color:#fea59c"
         offset="1"
         id="stop90" /></linearGradient><clipPath
       clipPathUnits="userSpaceOnUse"
       id="clipPath102"><path
         d="m 28686.1,9367.7 c -117.4,0 -243.9,2.2 -379.6,6.2 -1006.5,30 -16125.9,73.3 -20070.81,84.1 -521.97,1.5 -948.41,415.4 -964.6,937.2 -54.37,1752.1 -94.65,5566 -243.87,7875.2 -247.32,3826.9 55.79,4427.9 869.97,4427.9 57.51,0 117.64,-3.1 180.24,-8.1 137.24,-11.2 1963.17,-56.9 4431.47,-116.8 130.6,-195.8 286.6,-378.5 468.6,-543.7 283.6,-257.3 663.8,-402.7 1061.1,-406 L 29911,21491.5 c 57,-99.5 81.9,-213.8 72,-345.4 -61,-812.6 -70.2,-10221 -45.4,-11283.4 8.6,-372 -366.4,-495 -1251.5,-495 m -20620.77,2373 c -63.51,0 -115,-51.5 -115,-115 v -1375.3 c 0,-63.5 51.49,-115 115,-115 H 28703.9 c 63.5,0 115,51.5 115,115 v 1375.3 c 0,63.5 -51.5,115 -115,115 H 8065.33 m 9484.57,2311.6 v -1958.4 h 11269 v 1958.4 h -11269 m -9599.57,3017.9 v -4976.3 h 8893.17 v 4976.3 H 7950.33 m 90,4398.4 c -49.71,0 -90,-40.2 -90,-89.9 v -1425.3 c 0,-49.7 40.29,-90 90,-90 H 27091.5 c 49.7,0 90,40.3 90,90 v 1425.3 c 0,49.7 -40.3,89.9 -90,89.9 H 8040.33"
         id="path100" /></clipPath><linearGradient
       x1="0"
       y1="0"
       x2="1"
       y2="0"
       gradientUnits="userSpaceOnUse"
       gradientTransform="matrix(32100.6,-36664.4,36664.4,32100.6,8094.2,27953.5)"
       spreadMethod="pad"
       id="linearGradient108"><stop
         style="stop-opacity:1;stop-color:#ffbab8"
         offset="0"
         id="stop104" /><stop
         style="stop-opacity:1;stop-color:#fea59c"
         offset="1"
         id="stop106" /></linearGradient><clipPath
       clipPathUnits="userSpaceOnUse"
       id="clipPath118"><path
         d="M 4486.39,7534.9 H 32572.8 c 41.2,0 75,33.7 75,75 V 8704 c 0,41.3 -33.8,75 -75,75 H 4486.39 c -41.28,0 -75.05,-33.7 -75.05,-75 V 7609.9 c 0,-41.3 33.77,-75 75.05,-75 z"
         id="path116" /></clipPath><linearGradient
       x1="0"
       y1="0"
       x2="1"
       y2="0"
       gradientUnits="userSpaceOnUse"
       gradientTransform="matrix(1987.49,13364.2,13364.2,-1987.49,18725.3,9473.3)"
       spreadMethod="pad"
       id="linearGradient124"><stop
         style="stop-opacity:1;stop-color:#09005d"
         offset="0"
         id="stop120" /><stop
         style="stop-opacity:1;stop-color:#1a0f91"
         offset="1"
         id="stop122" /></linearGradient><clipPath
       clipPathUnits="userSpaceOnUse"
       id="clipPath134"><path
         d="M 27091.5,19863.4 H 8040.33 c -49.71,0 -90,40.3 -90,90 v 1425.3 c 0,49.7 40.29,89.9 90,89.9 H 27091.5 c 49.7,0 90,-40.2 90,-89.9 v -1425.3 c 0,-49.7 -40.3,-90 -90,-90"
         id="path132" /></clipPath><linearGradient
       x1="0"
       y1="0"
       x2="1"
       y2="0"
       gradientUnits="userSpaceOnUse"
       gradientTransform="matrix(32100.6,-36664.4,36664.4,32100.6,8094.2,27953.5)"
       spreadMethod="pad"
       id="linearGradient140"><stop
         style="stop-opacity:1;stop-color:#ffd3d2"
         offset="0"
         id="stop136" /><stop
         style="stop-opacity:1;stop-color:#fec6c0"
         offset="1"
         id="stop138" /></linearGradient><clipPath
       clipPathUnits="userSpaceOnUse"
       id="clipPath150"><path
         d="M 28703.9,10135.4 H 8065.33 c -63.51,0 -115,51.5 -115,115 v 1375.3 c 0,63.5 51.49,115 115,115 H 28703.9 c 63.5,0 115,-51.5 115,-115 v -1375.3 c 0,-63.5 -51.5,-115 -115,-115"
         id="path148" /></clipPath><linearGradient
       x1="0"
       y1="0"
       x2="1"
       y2="0"
       gradientUnits="userSpaceOnUse"
       gradientTransform="matrix(32100.6,-36664.4,36664.4,32100.6,8094.2,27953.5)"
       spreadMethod="pad"
       id="linearGradient156"><stop
         style="stop-opacity:1;stop-color:#ffd3d2"
         offset="0"
         id="stop152" /><stop
         style="stop-opacity:1;stop-color:#fec6c0"
         offset="1"
         id="stop154" /></linearGradient><clipPath
       clipPathUnits="userSpaceOnUse"
       id="clipPath166"><path
         d="m 17549.9,12093.9 h 11269 v 1958.4 h -11269 z"
         id="path164" /></clipPath><linearGradient
       x1="0"
       y1="0"
       x2="1"
       y2="0"
       gradientUnits="userSpaceOnUse"
       gradientTransform="matrix(32100.6,-36664.4,36664.4,32100.6,8094.2,27953.5)"
       spreadMethod="pad"
       id="linearGradient172"><stop
         style="stop-opacity:1;stop-color:#ffd3d2"
         offset="0"
         id="stop168" /><stop
         style="stop-opacity:1;stop-color:#fec6c0"
         offset="1"
         id="stop170" /></linearGradient><clipPath
       clipPathUnits="userSpaceOnUse"
       id="clipPath188"><path
         d="m 7950.33,12093.9 h 8893.17 v 4976.3 H 7950.33 Z"
         id="path186" /></clipPath><linearGradient
       x1="0"
       y1="0"
       x2="1"
       y2="0"
       gradientUnits="userSpaceOnUse"
       gradientTransform="matrix(32100.6,-36664.4,36664.4,32100.6,8094.2,27953.5)"
       spreadMethod="pad"
       id="linearGradient194"><stop
         style="stop-opacity:1;stop-color:#ffdfde"
         offset="0"
         id="stop190" /><stop
         style="stop-opacity:1;stop-color:#ffd5d0"
         offset="1"
         id="stop192" /></linearGradient><clipPath
       clipPathUnits="userSpaceOnUse"
       id="clipPath208"><path
         d="m 31974.1,28152.3 c -28.2,0 -55,12 -73.9,32.5 -9.4,10.2 -16.8,22.5 -21.4,36.6 -33.5,102.4 -72,204.7 -114.4,304 -21.8,50.9 1.9,109.9 52.9,131.5 12.8,5.5 26.1,8.1 39.3,8.1 38.9,0 76,-22.8 92.3,-60.9 44.6,-104.7 85.2,-212.4 120.5,-320.2 17.3,-52.6 -11.4,-109.3 -64,-126.5 -10.4,-3.5 -20.9,-5.1 -31.3,-5.1 m -364.1,794.3 c -27.6,0 -54.6,11.3 -73.9,32.3 -4.5,4.9 -8.6,10.2 -12.1,16.1 -55.7,92.4 -116.1,183.5 -179.5,270.9 -32.6,44.9 -22.6,107.6 22.2,140.1 17.9,12.9 38.5,19.2 59,19.2 31.1,0 61.6,-14.4 81.1,-41.5 66.7,-92 130.3,-187.9 188.9,-285 28.6,-47.5 13.4,-109.1 -34,-137.7 -16.2,-9.8 -34.1,-14.4 -51.7,-14.4"
         id="path206" /></clipPath><linearGradient
       x1="0"
       y1="0"
       x2="1"
       y2="0"
       gradientUnits="userSpaceOnUse"
       gradientTransform="matrix(3871.69,-4210.78,-4210.78,-3871.69,26837.7,31164.2)"
       spreadMethod="pad"
       id="linearGradient214"><stop
         style="stop-opacity:1;stop-color:#cacbff"
         offset="0"
         id="stop210" /><stop
         style="stop-opacity:1;stop-color:#c5c6f6"
         offset="1"
         id="stop212" /></linearGradient><clipPath
       clipPathUnits="userSpaceOnUse"
       id="clipPath224"><path
         d="m 25330.8,29514.3 c -23.6,0 -47.3,8.3 -66.3,25.1 -2.7,2.4 -5.2,4.9 -7.6,7.4 -34.3,37.3 -35.5,95.3 -1.3,134.2 75,84.9 154.7,167.9 237.1,246.5 19.4,18.6 44.3,27.8 69.2,27.8 26.5,0 52.9,-10.4 72.6,-31 l 1.3,-1.5 c 36.9,-40.1 35,-102.5 -4.6,-140.3 -78.2,-74.7 -154,-153.5 -225.2,-234.2 -19.8,-22.5 -47.4,-34 -75.2,-34"
         id="path222" /></clipPath><linearGradient
       x1="0"
       y1="0"
       x2="1"
       y2="0"
       gradientUnits="userSpaceOnUse"
       gradientTransform="matrix(3871.69,-4210.78,-4210.78,-3871.69,26837.7,31164.2)"
       spreadMethod="pad"
       id="linearGradient230"><stop
         style="stop-opacity:1;stop-color:#7d96fc"
         offset="0"
         id="stop226" /><stop
         style="stop-opacity:1;stop-color:#7991f3"
         offset="1"
         id="stop228" /></linearGradient><clipPath
       clipPathUnits="userSpaceOnUse"
       id="clipPath240"><path
         d="m 31078.4,29640.2 c -26.4,0 -52.7,10.3 -72.4,30.9 -74.8,77.9 -153.7,153.4 -234.6,224.6 -2.7,2.4 -5.3,4.9 -7.7,7.5 -34.3,37.3 -35.6,95.1 -1.4,134 19.8,22.6 47.5,34.1 75.3,34.1 23.5,0 47.2,-8.2 66.2,-25 85.2,-74.8 168.3,-154.4 246.9,-236.4 l 1.5,-1.6 c 36.8,-40 35,-102.4 -4.4,-140.2 -19.5,-18.7 -44.5,-27.9 -69.4,-27.9"
         id="path238" /></clipPath><linearGradient
       x1="0"
       y1="0"
       x2="1"
       y2="0"
       gradientUnits="userSpaceOnUse"
       gradientTransform="matrix(3871.69,-4210.78,-4210.78,-3871.69,26837.7,31164.2)"
       spreadMethod="pad"
       id="linearGradient246"><stop
         style="stop-opacity:1;stop-color:#cacbff"
         offset="0"
         id="stop242" /><stop
         style="stop-opacity:1;stop-color:#c5c6f6"
         offset="1"
         id="stop244" /></linearGradient><clipPath
       clipPathUnits="userSpaceOnUse"
       id="clipPath256"><path
         d="m 25978.3,30101.1 c -27.4,0 -54.4,11.1 -73.9,32.3 -2.6,2.9 -5.1,6 -7.5,9.2 -32.4,44.9 -22.4,107.6 22.5,140.1 92.3,66.6 188.2,129.9 285.3,188.2 16.2,9.7 34,14.4 51.5,14.4 34,0 67.2,-17.4 86.1,-48.7 28.5,-47.5 13.1,-109.1 -34.3,-137.6 -92.3,-55.4 -183.5,-115.6 -271.1,-178.9 -17.7,-12.9 -38.3,-19 -58.6,-19"
         id="path254" /></clipPath><linearGradient
       x1="0"
       y1="0"
       x2="1"
       y2="0"
       gradientUnits="userSpaceOnUse"
       gradientTransform="matrix(3871.69,-4210.78,-4210.78,-3871.69,26837.7,31164.2)"
       spreadMethod="pad"
       id="linearGradient262"><stop
         style="stop-opacity:1;stop-color:#7d96fc"
         offset="0"
         id="stop258" /><stop
         style="stop-opacity:1;stop-color:#7991f3"
         offset="1"
         id="stop260" /></linearGradient><clipPath
       clipPathUnits="userSpaceOnUse"
       id="clipPath272"><path
         d="m 30406.9,30198.9 c -18.9,0 -38,5.3 -55,16.5 -90.1,59.2 -183.9,115.2 -278.7,166.4 -10.1,5.5 -18.9,12.4 -26.2,20.3 -28.1,30.6 -35.2,76.9 -14.4,115.6 18.2,33.6 52.7,52.6 88.4,52.6 16.1,0 32.4,-3.9 47.5,-12 99.9,-54 198.7,-112.9 293.5,-175.3 46.2,-30.6 59.2,-92.5 28.8,-138.8 -19.2,-29.4 -51.3,-45.3 -83.9,-45.3"
         id="path270" /></clipPath><linearGradient
       x1="0"
       y1="0"
       x2="1"
       y2="0"
       gradientUnits="userSpaceOnUse"
       gradientTransform="matrix(3871.69,-4210.78,-4210.78,-3871.69,26837.7,31164.2)"
       spreadMethod="pad"
       id="linearGradient278"><stop
         style="stop-opacity:1;stop-color:#cacbff"
         offset="0"
         id="stop274" /><stop
         style="stop-opacity:1;stop-color:#c5c6f6"
         offset="1"
         id="stop276" /></linearGradient><clipPath
       clipPathUnits="userSpaceOnUse"
       id="clipPath288"><path
         d="m 26738.8,30530.4 c -27.9,0 -54.8,11.7 -73.8,32.4 -7.6,8.2 -13.9,17.9 -18.5,28.7 -21.6,51 2.2,109.9 53.1,131.5 104.5,44.4 212.3,84.7 320.3,120 10.3,3.3 20.8,4.9 31.1,4.9 42.2,0 81.5,-26.9 95.3,-69.2 17.2,-52.6 -11.6,-109.3 -64.2,-126.4 -102.6,-33.5 -204.9,-71.8 -304.1,-113.9 -12.8,-5.4 -26.1,-8 -39.2,-8"
         id="path286" /></clipPath><linearGradient
       x1="0"
       y1="0"
       x2="1"
       y2="0"
       gradientUnits="userSpaceOnUse"
       gradientTransform="matrix(3871.69,-4210.78,-4210.78,-3871.69,26837.7,31164.2)"
       spreadMethod="pad"
       id="linearGradient294"><stop
         style="stop-opacity:1;stop-color:#7d96fc"
         offset="0"
         id="stop290" /><stop
         style="stop-opacity:1;stop-color:#7991f3"
         offset="1"
         id="stop292" /></linearGradient><clipPath
       clipPathUnits="userSpaceOnUse"
       id="clipPath304"><path
         d="m 29628,30593.2 c -11.6,0 -23.4,2 -34.9,6.3 -101.1,37.6 -205.1,71.3 -309,100.1 -18.7,5.2 -34.7,15.4 -46.9,28.7 -22.7,24.7 -32.5,60.1 -22.9,94.8 12.4,44.4 52.7,73.5 96.6,73.5 8.9,0 17.9,-1.2 26.9,-3.7 109.3,-30.4 218.8,-65.8 325.2,-105.4 51.9,-19.4 78.4,-77.1 59,-129 -15,-40.4 -53.3,-65.3 -94,-65.3 m -1932.5,203.9 c -36.1,62.1 -73.7,123.7 -113.4,184.9 104.5,17.9 210.6,31.8 315.9,41.3 3,0.3 6,0.4 9,0.4 51.3,0 95.1,-39.1 99.9,-91.2 5,-55.2 -35.7,-103.9 -90.9,-108.9 -73.3,-6.7 -147.2,-15.5 -220.5,-26.5"
         id="path302" /></clipPath><linearGradient
       x1="0"
       y1="0"
       x2="1"
       y2="0"
       gradientUnits="userSpaceOnUse"
       gradientTransform="matrix(3871.69,-4210.78,-4210.78,-3871.69,26837.7,31164.2)"
       spreadMethod="pad"
       id="linearGradient310"><stop
         style="stop-opacity:1;stop-color:#cacbff"
         offset="0"
         id="stop306" /><stop
         style="stop-opacity:1;stop-color:#c5c6f6"
         offset="1"
         id="stop308" /></linearGradient><clipPath
       clipPathUnits="userSpaceOnUse"
       id="clipPath320"><path
         d="m 27576.4,30778.9 c -28.6,0 -55.2,12.3 -73.8,32.5 -12.5,13.6 -21.4,30.8 -24.8,50.3 -9.7,54.5 26.6,106.6 81.2,116.3 7.7,1.4 15.4,2.7 23.1,4 39.7,-61.2 77.3,-122.8 113.4,-184.9 -34,-5.1 -67.8,-10.6 -101.5,-16.6 -5.9,-1.1 -11.8,-1.6 -17.6,-1.6"
         id="path318" /></clipPath><linearGradient
       x1="0"
       y1="0"
       x2="1"
       y2="0"
       gradientUnits="userSpaceOnUse"
       gradientTransform="matrix(3871.69,-4210.78,-4210.78,-3871.69,26837.7,31164.2)"
       spreadMethod="pad"
       id="linearGradient326"><stop
         style="stop-opacity:1;stop-color:#6f82f7"
         offset="0"
         id="stop322" /><stop
         style="stop-opacity:1;stop-color:#6b7def"
         offset="1"
         id="stop324" /></linearGradient><clipPath
       clipPathUnits="userSpaceOnUse"
       id="clipPath336"><path
         d="m 28780.6,30804.5 c -4.4,0 -8.9,0.3 -13.4,0.9 -107.1,14.3 -216,24.1 -323.6,29.3 -27.4,1.3 -51.7,13.6 -69,32.3 -17.5,19.1 -27.7,44.8 -26.3,72.7 2.6,53.7 46.9,95.5 100,95.5 1.7,0 3.3,-0.1 5,-0.1 113.2,-5.5 227.7,-15.9 340.4,-30.9 55,-7.3 93.6,-57.7 86.2,-112.6 -6.7,-50.4 -49.8,-87.1 -99.3,-87.1"
         id="path334" /></clipPath><linearGradient
       x1="0"
       y1="0"
       x2="1"
       y2="0"
       gradientUnits="userSpaceOnUse"
       gradientTransform="matrix(3871.69,-4210.78,-4210.78,-3871.69,26837.7,31164.2)"
       spreadMethod="pad"
       id="linearGradient342"><stop
         style="stop-opacity:1;stop-color:#cacbff"
         offset="0"
         id="stop338" /><stop
         style="stop-opacity:1;stop-color:#c5c6f6"
         offset="1"
         id="stop340" /></linearGradient><clipPath
       clipPathUnits="userSpaceOnUse"
       id="clipPath352"><path
         d="m 32132,27466.1 c -28.6,0 -55.2,12.3 -73.7,32.5 -13.4,14.5 -22.6,33.1 -25.5,54.2 -7,51.2 -15.2,103.1 -24.3,154.4 -9.7,54.5 26.6,106.6 81.1,116.3 6,1 11.9,1.6 17.8,1.6 47.6,0 90,-34.2 98.5,-82.8 9.7,-53.8 18.3,-108.4 25.6,-162.4 7.5,-54.8 -30.9,-105.4 -85.7,-112.9 -4.6,-0.6 -9.2,-0.9 -13.8,-0.9"
         id="path350" /></clipPath><linearGradient
       x1="0"
       y1="0"
       x2="1"
       y2="0"
       gradientUnits="userSpaceOnUse"
       gradientTransform="matrix(226.12,-245.924,-245.924,-226.12,32006.7,27768.5)"
       spreadMethod="pad"
       id="linearGradient358"><stop
         style="stop-opacity:1;stop-color:#cacbff"
         offset="0"
         id="stop354" /><stop
         style="stop-opacity:1;stop-color:#c5c6f6"
         offset="1"
         id="stop356" /></linearGradient><clipPath
       clipPathUnits="userSpaceOnUse"
       id="clipPath368"><path
         d="m 31330.3,24515.6 c -21.8,0 -43.7,7 -62.1,21.6 -4.3,3.3 -8.2,7 -11.7,10.9 -32.8,35.6 -35.8,90.7 -4.9,129.9 32.1,40.6 63.8,82.5 94.3,124.6 19.7,27.1 50.3,41.5 81.3,41.5 20.4,0 41,-6.2 58.8,-19.1 45,-32.7 54.8,-95.3 22.3,-140.1 -32.1,-44.3 -65.5,-88.5 -99.2,-131.2 -19.8,-25 -49.2,-38.1 -78.8,-38.1"
         id="path366" /></clipPath><linearGradient
       x1="0"
       y1="0"
       x2="1"
       y2="0"
       gradientUnits="userSpaceOnUse"
       gradientTransform="matrix(155.166,-168.756,-168.756,-155.166,31301.2,24764.2)"
       spreadMethod="pad"
       id="linearGradient374"><stop
         style="stop-opacity:1;stop-color:#7d96fc"
         offset="0"
         id="stop370" /><stop
         style="stop-opacity:1;stop-color:#7991f3"
         offset="1"
         id="stop372" /></linearGradient><clipPath
       clipPathUnits="userSpaceOnUse"
       id="clipPath384"><path
         d="m 28344.4,23029.2 c -29.1,0 -55.4,12.5 -73.8,32.4 -15.9,17.4 -25.8,40.4 -26.4,65.9 -1.1,55.3 42.9,101.1 98.2,102.3 106.4,2.1 213.7,8.8 319.1,19.8 3.6,0.4 7.1,0.6 10.6,0.6 50.7,0 94.2,-38.3 99.6,-89.9 5.7,-55.1 -34.3,-104.4 -89.4,-110.2 -110.9,-11.6 -223.9,-18.6 -335.8,-20.9 -0.7,0 -1.4,0 -2.1,0 m -532.1,25.4 c -3.8,0 -7.7,0.2 -11.7,0.7 -110.8,12.9 -222.6,30.6 -332.2,52.7 -21.5,4.3 -40.1,15.3 -53.9,30.4 -21,22.8 -31.1,55 -24.6,87.7 9.6,47.6 51.5,80.5 98.2,80.5 6.6,0 13.3,-0.7 20,-2 104.1,-21 210.3,-37.8 315.7,-50.1 55,-6.3 94.4,-56.1 88,-111.2 -5.9,-51.1 -49.3,-88.7 -99.5,-88.7 m 1384.6,86.4 c -28.3,0 -55.1,12.1 -73.8,32.5 -11.1,12 -19.3,26.9 -23.5,43.9 -13.2,53.8 19.7,108.1 73.5,121.3 103.2,25.3 206.4,55.3 306.9,89.2 10.6,3.6 21.4,5.3 32,5.3 41.9,0 81,-26.4 95.1,-68.2 17.7,-52.5 -10.5,-109.4 -63,-127.1 -105.8,-35.7 -214.6,-67.3 -323.2,-94 -8,-2 -16,-2.9 -24,-2.9 m -2222.4,105.6 c -10.9,0 -22,1.8 -33,5.6 -105.6,36.8 -210.8,78.5 -312.7,123.9 -12.9,5.7 -24,13.9 -33,23.7 -26.2,28.5 -34.6,71 -17.8,108.7 16.7,37.4 53.3,59.5 91.7,59.5 13.7,0 27.5,-2.8 40.8,-8.7 96.7,-43.1 196.6,-82.7 297,-117.7 52.3,-18.2 80,-75.4 61.7,-127.7 -14.4,-41.4 -53.2,-67.3 -94.7,-67.3 m 3029.9,190.9 c -27.8,0 -54.8,11.5 -73.9,32.3 -6.2,6.8 -11.6,14.5 -15.9,23.2 -24.7,49.5 -4.6,109.7 44.9,134.5 94.9,47.3 188.9,99.3 279.6,154.6 16.3,10 34.3,14.7 52,14.7 33.9,0 67,-17.2 85.8,-48.1 28.9,-47.3 13.9,-109 -33.4,-137.8 -95.5,-58.2 -194.5,-113 -294.3,-162.9 -14.4,-7.1 -29.7,-10.5 -44.8,-10.5 m -3805.1,179.4 c -18.1,0 -36.4,4.9 -52.9,15.2 -95,59.1 -188.5,122.9 -277.9,189.7 -5.1,3.8 -9.7,8 -13.9,12.5 -32,34.8 -35.8,88.6 -6.5,127.8 19.7,26.4 49.9,40.3 80.5,40.3 20.8,0 41.9,-6.5 59.9,-19.9 84.9,-63.4 173.7,-124 263.9,-180.1 47,-29.4 61.4,-91.1 32.2,-138.2 -19,-30.5 -51.8,-47.3 -85.3,-47.3 m 4527.1,286.8 c -27.2,0 -54.2,11 -73.8,32.3 -1.4,1.5 -2.7,3.1 -4,4.7 -35,43 -28.4,106.1 14.5,141.1 60.7,49.3 120.6,101 178,153.9 20.8,19.1 41.3,38.4 61.6,57.9 19.4,18.6 44.5,27.9 69.5,27.9 26.3,0 52.6,-10.3 72.3,-30.8 39.6,-39.7 37.1,-103.4 -2.8,-141.8 -21.4,-20.5 -43,-40.8 -64.8,-60.9 -60.5,-55.5 -123.5,-110 -187.3,-161.9 -18.6,-15.1 -40.9,-22.4 -63.2,-22.4 m -5202,245.3 c -25.4,0 -50.9,9.6 -70.4,28.9 -46.5,45.8 -92.6,93.6 -137.2,142 -31.2,34 -62,68.6 -92.3,103.9 -36,42 -31.3,105.3 10.7,141.4 19,16.3 42.3,24.2 65.4,24.2 28.3,0 56.4,-11.8 76.1,-34.8 69.9,-81.5 143,-159.8 218.1,-233.9 39.4,-39 39.9,-102.3 1,-141.8 -19.6,-19.9 -45.5,-29.9 -71.4,-29.9 m -542.8,666.7 c -27.5,0 -54.5,11.3 -73.9,32.3 -3.8,4.2 -7.3,8.7 -10.4,13.6 -60.8,93.9 -118.3,191.5 -170.8,290 -26.1,48.8 -7.6,109.6 41.2,135.6 15.1,8 31.2,11.9 47.2,11.9 35.9,0 70.6,-19.3 88.5,-53.1 49.9,-93.6 104.5,-186.2 162.3,-275.5 30.1,-46.5 16.7,-108.6 -29.7,-138.7 -16.9,-10.9 -35.8,-16.1 -54.4,-16.1 m -384.7,769 c -28.1,0 -55,11.9 -73.9,32.4 -8.6,9.4 -15.5,20.6 -20.2,33.3 -38.6,104.9 -73.2,212.7 -102.8,320.4 -14.7,53.4 16.7,108.6 70.1,123.3 8.9,2.4 17.9,3.6 26.7,3.6 44,0 84.3,-29.2 96.6,-73.7 28.1,-102.3 60.9,-204.7 97.6,-304.3 19.2,-52 -7.5,-109.7 -59.5,-128.8 -11.4,-4.2 -23.1,-6.2 -34.6,-6.2"
         id="path382" /></clipPath><linearGradient
       x1="0"
       y1="0"
       x2="1"
       y2="0"
       gradientUnits="userSpaceOnUse"
       gradientTransform="matrix(3987.93,-4337.2,-4337.2,-3987.93,25582,27131.6)"
       spreadMethod="pad"
       id="linearGradient390"><stop
         style="stop-opacity:1;stop-color:#7d96fc"
         offset="0"
         id="stop386" /><stop
         style="stop-opacity:1;stop-color:#7991f3"
         offset="1"
         id="stop388" /></linearGradient><clipPath
       clipPathUnits="userSpaceOnUse"
       id="clipPath400"><path
         d="m 24390.6,26422 c -28.7,0 -55.2,12.3 -73.7,32.5 -13.5,14.6 -22.8,33.4 -25.6,54.7 -7.1,53.8 -13.2,108.8 -18.1,163.4 -5,55.2 35.7,103.9 90.9,108.9 3.1,0.3 6.1,0.4 9.1,0.4 51.3,0 95.1,-39.1 99.8,-91.3 4.6,-51.9 10.4,-104.1 17.1,-155.3 7.3,-54.8 -31.4,-105.2 -86.3,-112.5 -4.4,-0.5 -8.8,-0.8 -13.2,-0.8"
         id="path398" /></clipPath><linearGradient
       x1="0"
       y1="0"
       x2="1"
       y2="0"
       gradientUnits="userSpaceOnUse"
       gradientTransform="matrix(223.235,-242.786,-242.786,-223.235,24270.3,26723.3)"
       spreadMethod="pad"
       id="linearGradient406"><stop
         style="stop-opacity:1;stop-color:#7d96fc"
         offset="0"
         id="stop402" /><stop
         style="stop-opacity:1;stop-color:#7991f3"
         offset="1"
         id="stop404" /></linearGradient><clipPath
       clipPathUnits="userSpaceOnUse"
       id="clipPath416"><path
         d="m 25264.7,27142.1 c -2.8,-19.7 7.2,-39.2 25,-48.3 l 507.3,-260.9 c 23.2,-265.4 88.9,-529 198.8,-780.2 l -320.2,-471.7 c -11.2,-16.6 -10.7,-38.4 1.3,-54.4 l 410,-547.8 c 12,-16 32.8,-22.7 51.9,-16.6 l 542.8,174.2 c 210,-176.3 444.4,-313.6 692.5,-410.7 l 107.3,-560.3 c 3.8,-19.6 19.6,-34.7 39.4,-37.5 l 677.3,-97.5 c 19.8,-2.8 39.2,7.2 48.3,25 l 260.9,507.3 c 265.4,23.2 529,88.9 780.2,198.8 l 471.7,-320.1 c 16.6,-11.3 38.4,-10.8 54.4,1.2 l 547.9,410.1 c 16,11.9 22.6,32.8 16.5,51.8 l -174.2,542.9 c 176.3,210 313.6,444.4 410.7,692.5 l 560.3,107.2 c 19.6,3.8 34.7,19.6 37.6,39.4 l 97.4,677.3 c 2.9,19.8 -7.2,39.2 -25,48.4 l -507.3,260.8 c -23.2,265.4 -88.9,529 -198.8,780.2 l 320.2,471.8 c 11.2,16.5 10.7,38.3 -1.3,54.4 l -410,547.8 c -12,16 -32.8,22.6 -51.9,16.5 l -542.8,-174.1 c -210,176.2 -444.4,313.5 -692.5,410.6 l -107.3,560.3 c -3.8,19.6 -19.6,34.7 -39.4,37.6 l -677.3,97.4 c -19.8,2.9 -39.2,-7.2 -48.3,-24.9 l -260.9,-507.4 c -265.4,-23.2 -529,-88.9 -780.2,-198.8 l -471.7,320.2 c -16.6,11.2 -38.4,10.7 -54.4,-1.3 l -547.9,-410 c -16,-12 -22.6,-32.8 -16.5,-51.9 l 174.2,-542.8 c -176.3,-210 -313.6,-444.4 -410.7,-692.5 l -560.3,-107.3 c -19.6,-3.7 -34.7,-19.6 -37.6,-39.4 z"
         id="path414" /></clipPath><linearGradient
       x1="0"
       y1="0"
       x2="1"
       y2="0"
       gradientUnits="userSpaceOnUse"
       gradientTransform="matrix(-7432.91,21715.9,21715.9,7432.91,33090.1,13020.9)"
       spreadMethod="pad"
       id="linearGradient422"><stop
         style="stop-opacity:1;stop-color:#4f52ff"
         offset="0"
         id="stop418" /><stop
         style="stop-opacity:1;stop-color:#4042e2"
         offset="1"
         id="stop420" /></linearGradient><clipPath
       clipPathUnits="userSpaceOnUse"
       id="clipPath436"><path
         d="m 21040.7,30257.2 c -10.9,0 -21.9,2.9 -31.9,8.9 -5.2,3.1 -9.7,6.9 -13.6,11.2 -18.2,19.7 -22,49.7 -7.5,73.8 27.1,45.1 56,89.9 85.8,133.3 12,17.5 31.3,26.9 51.1,26.9 12,0 24.3,-3.5 35,-10.9 28.3,-19.3 35.3,-57.9 16,-86.1 -28.4,-41.4 -55.9,-84.1 -81.8,-127.1 -11.6,-19.3 -32.1,-30 -53.1,-30"
         id="path434" /></clipPath><linearGradient
       x1="0"
       y1="0"
       x2="1"
       y2="0"
       gradientUnits="userSpaceOnUse"
       gradientTransform="matrix(110.358,-120.023,-120.023,-110.358,21027.5,30444.3)"
       spreadMethod="pad"
       id="linearGradient442"><stop
         style="stop-opacity:1;stop-color:#7d96fc"
         offset="0"
         id="stop438" /><stop
         style="stop-opacity:1;stop-color:#7991f3"
         offset="1"
         id="stop440" /></linearGradient><clipPath
       clipPathUnits="userSpaceOnUse"
       id="clipPath452"><path
         d="m 25484.4,30313.1 c -17,0 -33.7,7 -45.6,19.9 -2.4,2.7 -4.7,5.6 -6.7,8.7 -48.5,76.1 -102.1,151 -159.3,222.4 -8.5,10.8 -17.1,21.4 -25.8,31.8 -21.8,26.4 -18.1,65.5 8.2,87.3 11.7,9.6 26,14.4 40.1,14.4 17.9,0 35.5,-7.6 47.1,-22.6 9.3,-11.2 18.4,-22.4 27.4,-33.8 59.7,-74.6 115.8,-153 166.7,-232.9 18.4,-28.9 10,-67.1 -18.9,-85.5 -10.3,-6.6 -21.8,-9.7 -33.2,-9.7 m -4161.5,328.1 c -14.6,0 -29.3,5.1 -41.1,15.6 -1.6,1.4 -3.1,2.9 -4.5,4.4 -21.3,23.1 -22,59 -0.7,83 60.1,67.7 124.3,133.1 191,194.4 14,12.9 28.2,25.7 42.6,38.4 11.4,10 25.6,14.7 39.7,14.7 17.7,0 35.3,-7.3 47.7,-20.2 22.7,-25.7 20.2,-64.8 -5.5,-87.5 -13.7,-12.1 -27.3,-24.3 -40.7,-36.6 -63.5,-58.4 -124.8,-120.8 -182.1,-185.4 -12.3,-13.8 -29.3,-20.8 -46.4,-20.8 m 3752,167.8 c -15.3,0 -30.6,5.7 -42.6,17 -76.1,72.1 -157.3,139.9 -241.3,201.6 -3.3,2.4 -6.2,5.1 -8.9,8 -19.7,21.4 -22.1,54.3 -4.3,78.6 12.2,16.5 30.9,25.2 50,25.2 12.7,0 25.6,-3.9 36.6,-12 88.1,-64.7 173.2,-135.9 253.1,-211.4 24.5,-24 25.9,-62.8 2.4,-87.6 -12.2,-12.9 -28.6,-19.4 -45,-19.4 m -3269.5,257.5 c -16.9,0 -33.6,6.9 -45.6,19.9 -2,2.2 -3.9,4.5 -5.5,7 -19.4,28.2 -12.2,66.8 16.1,86.1 90.5,62.1 185.7,119 282.9,169.3 9,4.7 18.7,6.9 28.3,6.9 22.4,0 44.1,-12.3 55.1,-33.4 15.8,-30.5 3.9,-67.8 -26.5,-83.5 -92.7,-48 -183.5,-102.4 -269.8,-161.5 -10.7,-7.3 -22.9,-10.8 -35,-10.8 m 2751.4,123.4 c -10.2,0 -20.6,2.5 -30.1,7.9 -91.1,51 -186.4,96.8 -283.2,136.1 -8.8,3.6 -16.3,8.9 -22.3,15.5 -15.7,17 -21.1,42.3 -11.8,65.2 9.8,24.1 33,38.7 57.4,38.7 7.8,0 15.7,-1.5 23.3,-4.6 101.6,-41.3 201.5,-89.3 297,-142.8 29.9,-16.8 40.5,-54.5 23.8,-84.3 -11.3,-20.3 -32.4,-31.7 -54.1,-31.7 m -2180.1,171.9 c -17.3,0 -33.9,7.4 -45.6,20.1 -5.4,5.8 -9.7,12.7 -12.6,20.5 -11.8,32.1 4.7,67.7 36.8,79.5 102.8,37.9 209.1,69.8 316,94.6 4.8,1.1 9.5,1.7 14.2,1.7 28.1,0 53.5,-19.3 60.2,-47.9 7.7,-33.3 -13,-66.6 -46.3,-74.4 -101.9,-23.8 -203.3,-54.1 -301.3,-90.2 -7.1,-2.6 -14.3,-3.9 -21.4,-3.9 m 1584.9,70.2 c -5.3,0 -10.7,0.7 -16.1,2.1 -100.9,27.1 -204.5,48.3 -308.1,63 -14.7,2.1 -27.5,9.2 -36.9,19.4 -12.1,13.2 -18.4,31.5 -15.7,50.6 4.3,30.9 30.9,53.3 61.2,53.3 2.9,0 5.8,-0.2 8.8,-0.6 108.5,-15.4 217.2,-37.6 322.9,-66.1 33.1,-8.8 52.6,-42.8 43.7,-75.9 -7.4,-27.6 -32.5,-45.8 -59.8,-45.8 m -958.6,75.8 c -17.8,0 -34.1,7.7 -45.5,20.1 -8.7,9.4 -14.5,21.6 -16,35.3 -3.6,34.1 21.1,64.6 55.1,68.2 93.3,9.8 187.9,14.8 281.7,14.8 16,0 31.9,-0.1 47.8,-0.4 34.2,-0.7 61.3,-29 60.7,-63.1 -0.5,-33.8 -28.2,-60.8 -61.9,-60.8 -0.4,0 -0.7,0 -1.1,0 -15.3,0.3 -30.6,0.4 -45.9,0.4 -89.4,0 -179.4,-4.7 -268.3,-14.1 -2.2,-0.3 -4.4,-0.4 -6.6,-0.4"
         id="path450" /></clipPath><linearGradient
       x1="0"
       y1="0"
       x2="1"
       y2="0"
       gradientUnits="userSpaceOnUse"
       gradientTransform="matrix(2162.9,-2352.32,-2352.32,-2162.9,22331.2,31732.7)"
       spreadMethod="pad"
       id="linearGradient458"><stop
         style="stop-opacity:1;stop-color:#7d96fc"
         offset="0"
         id="stop454" /><stop
         style="stop-opacity:1;stop-color:#7991f3"
         offset="1"
         id="stop456" /></linearGradient><clipPath
       clipPathUnits="userSpaceOnUse"
       id="clipPath468"><path
         d="m 23282.1,26295.8 c -77,0 -154.3,3.2 -230.9,9.8 -16,1.4 -30.2,8.8 -40.3,19.8 -11.3,12.3 -17.6,29.2 -16.1,47.2 2.8,32.3 29.8,56.7 61.6,56.7 1.8,0 3.6,-0.1 5.4,-0.2 73.2,-6.3 147.2,-9.5 220.8,-9.5 29.6,0 59.1,0.5 88.5,1.6 0.7,0 1.5,0 2.2,0 33.3,0 60.7,-26.4 61.9,-59.8 1.2,-34.2 -25.6,-62.8 -59.7,-64 -31.1,-1.1 -62.2,-1.6 -93.4,-1.6 m 406.7,31.8 c -17.7,0 -34.1,7.6 -45.6,20.1 -8,8.6 -13.6,19.7 -15.5,32.2 -5.4,33.8 17.7,65.5 51.5,70.9 101.8,15.9 203.5,38.3 302.2,66.5 5.6,1.6 11.3,2.4 16.9,2.4 27,0 51.9,-17.7 59.6,-45 9.4,-32.9 -9.6,-67.1 -42.5,-76.5 -103.6,-29.5 -210.2,-53.1 -316.9,-69.9 -3.3,-0.5 -6.5,-0.7 -9.7,-0.7 m -945.7,24 c -4.2,0 -8.4,0.4 -12.7,1.3 -105.5,22.1 -210.8,50.9 -312.8,85.5 -10.2,3.5 -18.9,9.4 -25.6,16.7 -14.9,16.2 -20.7,39.7 -13.1,61.9 8.7,25.8 32.8,42.1 58.6,42.1 6.6,0 13.3,-1.1 19.9,-3.3 97.4,-33.1 197.7,-60.6 298.4,-81.6 33.5,-7 54.9,-39.8 47.9,-73.3 -6.1,-29.2 -31.9,-49.3 -60.6,-49.3 m -598.8,203.3 c -9,0 -18.1,2 -26.8,6.1 -96.9,46.7 -192.2,100 -283.1,158.3 -4.6,3 -8.7,6.4 -12.2,10.3 -18.6,20.2 -22,51.1 -6.5,75.3 11.8,18.4 31.8,28.5 52.2,28.5 11.4,0 23,-3.2 33.3,-9.8 86.8,-55.6 177.6,-106.4 270.1,-151 30.8,-15 43.8,-51.8 28.9,-82.6 -10.7,-22.2 -32.8,-35.1 -55.9,-35.1 m -532.1,341.8 c -14,0 -28,4.7 -39.6,14.3 -82.7,68.8 -162.3,143.5 -236.4,222 l -0.5,0.6 c -22.9,24.9 -21.6,63.7 3.1,87 11.9,11.3 27.2,16.8 42.5,16.8 16.4,0 32.8,-6.5 45,-19.4 70.7,-74.9 146.5,-146.1 225.5,-211.7 25.9,-21.9 29.9,-60.9 8,-87.2 -12.2,-14.8 -29.9,-22.4 -47.6,-22.4 m -434.2,460.1 c -16.9,0 -33.6,6.8 -45.6,19.9 -1.5,1.7 -2.9,3.4 -4.3,5.2 -64.1,86.7 -123.5,178.2 -176.8,271.9 -16.8,29.8 -6.4,67.6 23.3,84.4 9.6,5.5 20.1,8.1 30.5,8.1 21.6,0 42.6,-11.3 54,-31.3 50.7,-89.4 107.5,-176.7 168.7,-259.5 20.3,-27.5 14.5,-66.3 -13,-86.6 -11.1,-8.2 -24,-12.1 -36.8,-12.1 m -312,550.4 c -17.3,0 -33.9,7.2 -45.7,20 -4.7,5.2 -8.7,11.3 -11.6,18.2 -41.4,99.6 -77,202.8 -105.9,306.7 -9.2,33 10.1,67.1 43.1,76.3 5.5,1.5 11,2.3 16.5,2.3 27.1,0 52,-18 59.7,-45.3 27.6,-99.1 61.6,-197.5 101,-292.5 13.1,-31.6 -1.8,-67.9 -33.4,-81 -7.8,-3.2 -15.8,-4.7 -23.7,-4.7"
         id="path466" /></clipPath><linearGradient
       x1="0"
       y1="0"
       x2="1"
       y2="0"
       gradientUnits="userSpaceOnUse"
       gradientTransform="matrix(2468.62,-2684.82,-2684.82,-2468.62,21041.4,28609.4)"
       spreadMethod="pad"
       id="linearGradient474"><stop
         style="stop-opacity:1;stop-color:#7d96fc"
         offset="0"
         id="stop470" /><stop
         style="stop-opacity:1;stop-color:#7991f3"
         offset="1"
         id="stop472" /></linearGradient><clipPath
       clipPathUnits="userSpaceOnUse"
       id="clipPath484"><path
         d="m 20695.7,28519.6 c -17.7,0 -34.1,7.6 -45.6,20 -8.1,8.8 -13.7,20.1 -15.6,32.8 -7.9,52.4 -14.2,105.3 -18.9,157.2 -3,34.1 22.1,64.2 56.2,67.2 1.8,0.2 3.6,0.3 5.4,0.3 31.8,0 58.9,-24.2 61.8,-56.4 4.4,-49.5 10.5,-100 18,-150 5.1,-33.9 -18.3,-65.4 -52.1,-70.4 -3.1,-0.5 -6.2,-0.7 -9.2,-0.7"
         id="path482" /></clipPath><linearGradient
       x1="0"
       y1="0"
       x2="1"
       y2="0"
       gradientUnits="userSpaceOnUse"
       gradientTransform="matrix(168.831,-183.618,-183.618,-168.831,20602.1,28750.1)"
       spreadMethod="pad"
       id="linearGradient490"><stop
         style="stop-opacity:1;stop-color:#7d96fc"
         offset="0"
         id="stop486" /><stop
         style="stop-opacity:1;stop-color:#7991f3"
         offset="1"
         id="stop488" /></linearGradient><clipPath
       clipPathUnits="userSpaceOnUse"
       id="clipPath500"><path
         d="m 21274,29043.3 c -1.9,-13.2 4.8,-26.2 16.7,-32.3 l 339.5,-174.6 c 15.5,-177.6 59.4,-354 133,-522.1 l -214.2,-315.6 c -7.6,-11.1 -7.2,-25.7 0.8,-36.4 l 274.4,-366.6 c 8,-10.7 21.9,-15.2 34.7,-11.1 l 363.2,116.6 c 140.5,-118 297.4,-209.9 463.4,-274.8 l 71.8,-375 c 2.5,-13.1 13.1,-23.2 26.3,-25.1 l 453.2,-65.2 c 13.3,-1.9 26.3,4.8 32.4,16.7 l 174.6,339.5 c 177.6,15.5 354,59.5 522,133 l 315.7,-214.2 c 11.1,-7.5 25.7,-7.2 36.4,0.8 l 366.6,274.4 c 10.7,8 15.1,22 11.1,34.7 l -116.6,363.2 c 117.9,140.6 209.8,297.4 274.8,463.4 l 374.9,71.8 c 13.2,2.5 23.3,13.1 25.2,26.4 l 65.2,453.2 c 1.9,13.2 -4.8,26.2 -16.7,32.3 l -339.5,174.6 c -15.5,177.6 -59.5,354 -133,522.1 l 214.2,315.6 c 7.5,11.1 7.2,25.7 -0.9,36.4 l -274.3,366.6 c -8,10.7 -22,15.2 -34.7,11.1 l -363.3,-116.5 c -140.5,117.9 -297.4,209.8 -463.4,274.7 l -71.8,375 c -2.5,13.1 -13.1,23.2 -26.3,25.1 l -453.2,65.2 c -13.3,1.9 -26.3,-4.8 -32.4,-16.7 l -174.5,-339.5 c -177.6,-15.5 -354,-59.5 -522.1,-133 l -315.7,214.2 c -11,7.5 -25.7,7.2 -36.4,-0.8 l -366.6,-274.4 c -10.7,-8 -15.1,-21.9 -11,-34.7 l 116.5,-363.2 c -117.9,-140.6 -209.8,-297.4 -274.8,-463.4 l -374.9,-71.8 c -13.1,-2.5 -23.2,-13.1 -25.1,-26.4 z"
         id="path498" /></clipPath><linearGradient
       x1="0"
       y1="0"
       x2="1"
       y2="0"
       gradientUnits="userSpaceOnUse"
       gradientTransform="matrix(-7432.91,21715.9,21715.9,7432.91,29213.6,11696.4)"
       spreadMethod="pad"
       id="linearGradient506"><stop
         style="stop-opacity:1;stop-color:#4f52ff"
         offset="0"
         id="stop502" /><stop
         style="stop-opacity:1;stop-color:#4042e2"
         offset="1"
         id="stop504" /></linearGradient><clipPath
       clipPathUnits="userSpaceOnUse"
       id="clipPath520"><path
         d="m 8935.33,21313.4 c 41.06,634.7 424.34,1196.9 998.84,1469.8 l 7443.23,3535.1 c 476.7,226.4 1029.9,226.4 1506.6,0 l 7443.3,-3535.1 c 574.5,-272.9 957.8,-835.1 998.8,-1469.8 698.2,-10792.1 -6221.6,-14724.3 -8489.9,-15717.6 -449.9,-197 -961,-197 -1410.9,0 -2268.4,993.3 -9188.15,4925.5 -8489.97,15717.6 z"
         id="path518" /></clipPath><linearGradient
       x1="0"
       y1="0"
       x2="1"
       y2="0"
       gradientUnits="userSpaceOnUse"
       gradientTransform="matrix(-2784.24,-5772.22,-5772.22,2784.24,28938.7,40974.7)"
       spreadMethod="pad"
       id="linearGradient526"><stop
         style="stop-opacity:1;stop-color:#09005d"
         offset="0"
         id="stop522" /><stop
         style="stop-opacity:1;stop-color:#1a0f91"
         offset="1"
         id="stop524" /></linearGradient><clipPath
       clipPathUnits="userSpaceOnUse"
       id="clipPath540"><path
         d="m 10735.3,20892.2 c 8.2,160.9 104,304.5 249.5,373.7 l 6958.2,3304.7 c 118.8,56.4 256.7,56.4 375.5,0 l 6958.1,-3304.7 c 145.6,-69.2 241.4,-212.8 249.6,-373.7 205.7,-4025.8 -724.1,-7384.8 -2765.8,-9988.2 -1556.6,-1984.9 -3377.5,-3048.6 -4444.5,-3544.8 -117.5,-54.7 -252.8,-54.7 -370.4,0 -1067,496.2 -2887.9,1559.9 -4444.5,3544.8 -2041.6,2603.4 -2971.5,5962.5 -2765.7,9988.2 z"
         id="path538" /></clipPath><linearGradient
       x1="0"
       y1="0"
       x2="1"
       y2="0"
       gradientUnits="userSpaceOnUse"
       gradientTransform="matrix(-6512.02,-15984.1,15984.1,-6512.02,21376.5,26667.2)"
       spreadMethod="pad"
       id="linearGradient546"><stop
         style="stop-opacity:1;stop-color:#4f52ff"
         offset="0"
         id="stop542" /><stop
         style="stop-opacity:1;stop-color:#4042e2"
         offset="1"
         id="stop544" /></linearGradient><clipPath
       clipPathUnits="userSpaceOnUse"
       id="clipPath556"><path
         d="m 20188.1,16566.9 h 693.4 v 2763.6 c 0,1085.5 -812.5,2002.7 -1890,2133.7 l -1418,172.3 c -610.2,74.2 -1224.2,-117.1 -1684.5,-524.7 -460.2,-407.7 -724.2,-994.2 -724.2,-1609 v -2412.6 h 693.5 v 2412.6 c 0,416.5 178.8,813.7 490.6,1089.8 311.7,276.2 727.6,405.8 1141,355.5 l 1417.9,-172.3 c 729.9,-88.7 1280.3,-710.1 1280.3,-1445.3 z"
         id="path554" /></clipPath><linearGradient
       x1="0"
       y1="0"
       x2="1"
       y2="0"
       gradientUnits="userSpaceOnUse"
       gradientTransform="matrix(-747.787,-7876.72,7876.72,-747.787,18279.1,20781)"
       spreadMethod="pad"
       id="linearGradient562"><stop
         style="stop-opacity:1;stop-color:#ff928e"
         offset="0"
         id="stop558" /><stop
         style="stop-opacity:1;stop-color:#fe7062"
         offset="1"
         id="stop560" /></linearGradient><clipPath
       clipPathUnits="userSpaceOnUse"
       id="clipPath572"><path
         d="m 21086.6,17187.4 -6079.1,336.8 c -246.9,13.6 -454.6,-182.9 -454.6,-430.2 v -4815.9 c 0,-237.9 192.8,-430.8 430.8,-430.8 h 5933 c 232.4,0 422.9,184.5 430.5,416.8 l 146.1,4479.1 c 7.6,234 -173,431.2 -406.7,444.2 z"
         id="path570" /></clipPath><linearGradient
       x1="0"
       y1="0"
       x2="1"
       y2="0"
       gradientUnits="userSpaceOnUse"
       gradientTransform="matrix(-2540.84,-19056.3,-19056.3,2540.84,18466.6,18559.6)"
       spreadMethod="pad"
       id="linearGradient578"><stop
         style="stop-opacity:1;stop-color:#ff928e"
         offset="0"
         id="stop574" /><stop
         style="stop-opacity:1;stop-color:#fe7062"
         offset="1"
         id="stop576" /></linearGradient><clipPath
       clipPathUnits="userSpaceOnUse"
       id="clipPath588"><path
         d="m 17032.2,13227 367.9,1057.8 c 44.2,127.2 14.1,269.4 -80.5,365.2 -188.5,191 -300.9,457.5 -287.6,750 23.5,516 445,934.4 961.2,954.3 571.2,21.9 1041.1,-434.7 1041.1,-1001 0,-314.2 -144.7,-594.4 -371,-778 -117.4,-95.3 -165.7,-251.8 -116,-394.6 L 18879,13227 c 80.7,-232 -91.5,-474.3 -337.1,-474.3 h -1172.6 c -245.6,0 -417.8,242.3 -337.1,474.3 z"
         id="path586" /></clipPath><linearGradient
       x1="0"
       y1="0"
       x2="1"
       y2="0"
       gradientUnits="userSpaceOnUse"
       gradientTransform="matrix(2093.85,-2741.72,2741.72,2093.85,16931,15770.9)"
       spreadMethod="pad"
       id="linearGradient594"><stop
         style="stop-opacity:1;stop-color:#e1473d"
         offset="0"
         id="stop590" /><stop
         style="stop-opacity:1;stop-color:#e9605a"
         offset="1"
         id="stop592" /></linearGradient><clipPath
       clipPathUnits="userSpaceOnUse"
       id="clipPath604"><path
         d="m 4689.44,5478.7 c 0,0 -109.19,-172.1 -136.65,-654 -2.57,-44.9 33,-83.2 77.97,-83.2 h 854.02 c 34.35,0 58.87,33.7 47.88,66.3 -50.04,148.1 -201.36,509.2 -538.98,715.5 z"
         id="path602" /></clipPath><linearGradient
       x1="0"
       y1="0"
       x2="1"
       y2="0"
       gradientUnits="userSpaceOnUse"
       gradientTransform="matrix(-979.733,-3286.85,-3286.85,979.733,16255.3,42538.7)"
       spreadMethod="pad"
       id="linearGradient610"><stop
         style="stop-opacity:1;stop-color:#53d8ff"
         offset="0"
         id="stop606" /><stop
         style="stop-opacity:1;stop-color:#3840f7"
         offset="1"
         id="stop608" /></linearGradient><clipPath
       clipPathUnits="userSpaceOnUse"
       id="clipPath620"><path
         d="m 4652.33,5805.2 48.31,-405 c 4.17,-34.9 31.56,-62.9 66.51,-66.9 46.71,-5.4 114.61,-9.2 180.58,1.7 59.98,9.9 103.15,63.3 103.15,124.1 v 391 z"
         id="path618" /></clipPath><linearGradient
       x1="0"
       y1="0"
       x2="1"
       y2="0"
       gradientUnits="userSpaceOnUse"
       gradientTransform="matrix(398.543,0,0,-398.543,4652.33,5589.1)"
       spreadMethod="pad"
       id="linearGradient626"><stop
         style="stop-opacity:1;stop-color:#a22b25"
         offset="0"
         id="stop622" /><stop
         style="stop-opacity:1;stop-color:#c0423c"
         offset="1"
         id="stop624" /></linearGradient><clipPath
       clipPathUnits="userSpaceOnUse"
       id="clipPath636"><path
         d="m 6802.4,5523.3 c 0,0 -163.45,-254 -159.96,-602.8 0.83,-82.1 69.6,-147.5 151.75,-147.5 h 1326.36 c 62.11,0 87.32,79.8 36.5,115.5 -250.99,176.2 -744.3,505.5 -1101.09,634.8 z"
         id="path634" /></clipPath><linearGradient
       x1="0"
       y1="0"
       x2="1"
       y2="0"
       gradientUnits="userSpaceOnUse"
       gradientTransform="matrix(-979.739,-3286.87,-3286.87,979.739,18421.2,41893.3)"
       spreadMethod="pad"
       id="linearGradient642"><stop
         style="stop-opacity:1;stop-color:#53d8ff"
         offset="0"
         id="stop638" /><stop
         style="stop-opacity:1;stop-color:#3840f7"
         offset="1"
         id="stop640" /></linearGradient><clipPath
       clipPathUnits="userSpaceOnUse"
       id="clipPath652"><path
         d="m 6665.81,5960.8 103.03,-500.2 c 11.52,-56 66.26,-93.6 122.01,-81.2 33.89,7.6 73.88,22.1 116.59,48.8 40.62,25.4 61.19,73.7 52.89,120.8 l -106.57,606 z"
         id="path650" /></clipPath><linearGradient
       x1="0"
       y1="0"
       x2="1"
       y2="0"
       gradientUnits="userSpaceOnUse"
       gradientTransform="matrix(396.336,0,0,-396.336,6665.81,5766)"
       spreadMethod="pad"
       id="linearGradient658"><stop
         style="stop-opacity:1;stop-color:#a22b25"
         offset="0"
         id="stop654" /><stop
         style="stop-opacity:1;stop-color:#c0423c"
         offset="1"
         id="stop656" /></linearGradient><clipPath
       clipPathUnits="userSpaceOnUse"
       id="clipPath672"><path
         d="M 7792.25,16292 C 6390.62,15721.6 6180.21,15265.1 6180.21,15265.1 l 1163.75,-692.7 c 0,0 1308.38,696.2 1885.28,1906.2 -274.01,101 -504.06,249.6 -666.28,373.8 -192.73,-225.3 -443.76,-427.4 -770.71,-560.4 z"
         id="path670" /></clipPath><linearGradient
       x1="0"
       y1="0"
       x2="1"
       y2="0"
       gradientUnits="userSpaceOnUse"
       gradientTransform="matrix(-588.54,-882.809,-882.809,588.54,10811.6,20504.2)"
       spreadMethod="pad"
       id="linearGradient678"><stop
         style="stop-opacity:1;stop-color:#4f52ff"
         offset="0"
         id="stop674" /><stop
         style="stop-opacity:1;stop-color:#4042e2"
         offset="1"
         id="stop676" /></linearGradient><clipPath
       clipPathUnits="userSpaceOnUse"
       id="clipPath688"><path
         d="m 8897.47,19334.2 c -23.67,42.2 -88.03,24.3 -86.53,-24 l 14.06,-453.3 c 2.73,-87.6 32.27,-172.2 84.65,-242.4 l 168.28,-182.7 c 70.72,-94.8 97.57,-215.1 73.45,-330.9 -57.73,-277.1 -211.01,-807.4 -588.42,-1248.5 162.22,-124.2 392.27,-272.8 666.28,-373.8 211.67,444 325.01,957.1 238.92,1530.5 65.85,63.5 80.72,163.3 36.29,243.3 z"
         id="path686" /></clipPath><linearGradient
       x1="0"
       y1="0"
       x2="1"
       y2="0"
       gradientUnits="userSpaceOnUse"
       gradientTransform="matrix(1313.75,666.082,666.082,-1313.75,8230.14,17508.8)"
       spreadMethod="pad"
       id="linearGradient694"><stop
         style="stop-opacity:1;stop-color:#a22b25"
         offset="0"
         id="stop690" /><stop
         style="stop-opacity:1;stop-color:#c0423c"
         offset="1"
         id="stop692" /></linearGradient><clipPath
       clipPathUnits="userSpaceOnUse"
       id="clipPath704"><path
         d="m 8873.1,15820.7 c -530.88,572 -1542.09,830.5 -2127.55,936.6 -256.5,46.5 -509.34,-96.2 -600.22,-340.5 -263.46,-708.3 -980.03,-2550.9 -1118.92,-2867.6 -113.95,-259.8 -232.92,-513.5 -308.52,-672.1 -45.17,-94.8 -5.7,-208.2 88.88,-253.8 492.57,-237.4 1378.9,-506.1 1738.24,-610.9 79.03,-23 157.73,36.3 157.73,118.7 0,69.8 18.99,138.3 54.92,198.2 l 1360.88,2267.8 c 848.21,-940.5 1591.03,-1026.5 2161.66,-820.7 -96,296.6 -158.7,593.6 -188.9,891.3 -842.97,144.4 -1218.2,1153 -1218.2,1153 z"
         id="path702" /></clipPath><linearGradient
       x1="0"
       y1="0"
       x2="1"
       y2="0"
       gradientUnits="userSpaceOnUse"
       gradientTransform="matrix(-806.302,-7636.2,-7636.2,806.302,7962.37,17767.1)"
       spreadMethod="pad"
       id="linearGradient710"><stop
         style="stop-opacity:1;stop-color:#4f52ff"
         offset="0"
         id="stop706" /><stop
         style="stop-opacity:1;stop-color:#4042e2"
         offset="1"
         id="stop708" /></linearGradient><clipPath
       clipPathUnits="userSpaceOnUse"
       id="clipPath720"><path
         d="m 11484.7,14825.5 -152.1,202.9 c -492.5,-338.3 -904.2,-418.5 -1241.3,-360.7 30.2,-297.7 92.9,-594.7 188.9,-891.3 751.7,271.2 1204.5,1049.1 1204.5,1049.1 z"
         id="path718" /></clipPath><linearGradient
       x1="0"
       y1="0"
       x2="1"
       y2="0"
       gradientUnits="userSpaceOnUse"
       gradientTransform="matrix(-3182.71,-3959.59,-3959.59,3182.71,12652.9,17050.1)"
       spreadMethod="pad"
       id="linearGradient726"><stop
         style="stop-opacity:1;stop-color:#a22b25"
         offset="0"
         id="stop722" /><stop
         style="stop-opacity:1;stop-color:#c0423c"
         offset="1"
         id="stop724" /></linearGradient><clipPath
       clipPathUnits="userSpaceOnUse"
       id="clipPath736"><path
         d="m 11377.5,14821.9 857,-33.4 789.2,440.7 c -113.3,71 -753.9,-74.1 -753.9,-74.1 0,0 -669.6,101.2 -850.8,101.5 -150.5,0.2 -129,-216.3 -117.4,-289.6 2.3,-15 4.3,-24 4.3,-24 z"
         id="path734" /></clipPath><linearGradient
       x1="0"
       y1="0"
       x2="1"
       y2="0"
       gradientUnits="userSpaceOnUse"
       gradientTransform="matrix(-3182.69,-3959.57,-3959.57,3182.69,13256.3,16565.1)"
       spreadMethod="pad"
       id="linearGradient742"><stop
         style="stop-opacity:1;stop-color:#a22b25"
         offset="0"
         id="stop738" /><stop
         style="stop-opacity:1;stop-color:#c0423c"
         offset="1"
         id="stop740" /></linearGradient><clipPath
       clipPathUnits="userSpaceOnUse"
       id="clipPath752"><path
         d="M 7550.83,17807.9 7098.6,16704.4 c 0,0 519.61,-359.7 937.65,-325.4 l 225.7,992.2 z"
         id="path750" /></clipPath><linearGradient
       x1="0"
       y1="0"
       x2="1"
       y2="0"
       gradientUnits="userSpaceOnUse"
       gradientTransform="matrix(-1335.53,-769.629,-769.629,1335.53,11060.9,18976.3)"
       spreadMethod="pad"
       id="linearGradient758"><stop
         style="stop-opacity:1;stop-color:#a22b25"
         offset="0"
         id="stop754" /><stop
         style="stop-opacity:1;stop-color:#c0423c"
         offset="1"
         id="stop756" /></linearGradient><clipPath
       clipPathUnits="userSpaceOnUse"
       id="clipPath768"><path
         d="m 8314.73,18560.2 c 10.35,-14.7 327.15,-1159.1 327.15,-1159.1 l -657.31,-167 -461.42,1040.1 c 0,0 618.18,531.7 791.58,286 z"
         id="path766" /></clipPath><linearGradient
       x1="0"
       y1="0"
       x2="1"
       y2="0"
       gradientUnits="userSpaceOnUse"
       gradientTransform="matrix(-73.6624,-2258.01,-2258.01,73.6624,8100.85,18399.6)"
       spreadMethod="pad"
       id="linearGradient774"><stop
         style="stop-opacity:1;stop-color:#a22b25"
         offset="0"
         id="stop770" /><stop
         style="stop-opacity:1;stop-color:#c0423c"
         offset="1"
         id="stop772" /></linearGradient><clipPath
       clipPathUnits="userSpaceOnUse"
       id="clipPath784"><path
         d="m 7770.67,18116.2 200.03,-566.6 c 2.56,-7.3 6,-14 10.43,-20.3 27.14,-38.5 130.26,-164.4 252.57,-51 110.98,102.8 213.8,195 308.76,211.8 42.63,7.5 83.93,-18.5 95.46,-60.2 28.76,-104 89.22,-339.6 110.55,-552.2 4.32,-43.2 -25.48,-82.2 -68.08,-90.3 -128.39,-24.3 -400.58,-68.2 -627.83,-52.2 -30.79,2.2 -57.88,20.7 -70.73,48.8 -62.63,136.8 -254.51,552 -325.87,659.4 -67,100.9 -231.19,98 -300.06,91.9 -22.59,-2 -44.79,5.3 -61.83,20.3 -60.24,52.8 -174.91,187.6 -13.61,349 33.76,33.8 32.84,88.3 -1.94,121 -69.26,65.1 -143.34,180.6 -27.94,323.9 117.29,145.6 272.13,122.4 367,87.8 38.36,-14 80.21,2.2 101.06,37.3 11.87,20 32.57,35.1 68.48,32 48.39,-4.1 89.06,36.3 88.19,84.8 -1.67,93.3 31.72,211.1 193.55,261.5 287.13,89.4 466.19,-188 483.93,-395 17.73,-207 -299.08,-286.2 -485.39,-272.3 -141.65,10.7 -246.81,-129.7 -289.09,-197.7 -13.4,-21.5 -16.06,-47.8 -7.64,-71.7 z"
         id="path782" /></clipPath><linearGradient
       x1="0"
       y1="0"
       x2="1"
       y2="0"
       gradientUnits="userSpaceOnUse"
       gradientTransform="matrix(-152.079,-5626.78,5626.78,-152.079,8031.78,20033.7)"
       spreadMethod="pad"
       id="linearGradient790"><stop
         style="stop-opacity:1;stop-color:#09005d"
         offset="0"
         id="stop786" /><stop
         style="stop-opacity:1;stop-color:#1a0f91"
         offset="1"
         id="stop788" /></linearGradient><clipPath
       clipPathUnits="userSpaceOnUse"
       id="clipPath800"><path
         d="m 7730.84,17437.9 c 0,0 -46.39,359.3 -195.87,376.9 -149.49,17.7 -295,-105.2 -146.38,-306.9 184.87,-250.9 342.25,-70 342.25,-70 z"
         id="path798" /></clipPath><linearGradient
       x1="0"
       y1="0"
       x2="1"
       y2="0"
       gradientUnits="userSpaceOnUse"
       gradientTransform="matrix(246.201,1546.04,1546.04,-246.201,7293.83,16083)"
       spreadMethod="pad"
       id="linearGradient806"><stop
         style="stop-opacity:1;stop-color:#a22b25"
         offset="0"
         id="stop802" /><stop
         style="stop-opacity:1;stop-color:#c0423c"
         offset="1"
         id="stop804" /></linearGradient></defs><sodipodi:namedview
     pagecolor="#ffffff"
     bordercolor="#666666"
     borderopacity="1"
     objecttolerance="10"
     gridtolerance="10"
     guidetolerance="10"
     inkscape:pageopacity="0"
     inkscape:pageshadow="2"
     inkscape:window-width="640"
     inkscape:window-height="480"
     id="namedview4" /><g
     id="g10"
     inkscape:groupmode="layer"
     inkscape:label="ink_ext_XXXXXX"
     transform="matrix(1.3333333,0,0,-1.3333333,0,4946.6667)"><g
       id="g12"
       transform="scale(0.1)"><path
         d="M 0,0 H 37100 V 37100 H 0 Z"
         style="fill:#ffffff;fill-opacity:1;fill-rule:nonzero;stroke:none"
         id="path14" /><g
         id="g16"><g
           id="g18"
           clip-path="url(#clipPath22)"><path
             d="m 18847,4866.6 c -1680.2,0 -2963.8,235 -3475.7,338.9 -1608.1,326.7 -4515.7,917.2 -6951.25,3052.1 H 28530.4 C 28167.2,7939 27830,7697 27544,7491.8 24580.1,5365.1 21293.4,4866.6 18847,4866.6 m -12864.62,6502 c -2366.57,4532.2 -1553.54,10532.6 1079.48,14684.1 556.96,878.2 3498.94,5752.2 9478.54,6533.8 593.4,77.6 1203.7,116.8 1821.6,116.8 1158.9,0 2347.1,-137.7 3513.4,-418.4 -1365.1,-782.3 -2009.4,-2107.2 -2009.4,-2107.2 0,0 -800,283.7 -1781.2,283.7 -1314.4,0 -2954.3,-508.6 -3434.9,-2889.3 -1823.4,-404.7 -2750,-2003.6 -2643,-3506 l -5121.87,132.5 c -9.95,0.3 -19.9,0.4 -29.81,0.4 -303.81,0 -595.71,-120.3 -811.35,-335.2 -222.68,-222 -344.52,-525.5 -337.09,-839.6 l 275.6,-11655.6 m 25685.62,2244.1 115.8,7999 c 51.4,26.3 100.6,56.4 146.9,89.7 570.8,-2742.1 440,-5606.8 -262.7,-8088.7 m -2592.2,14264.8 c -162.1,12.9 -331.2,21.4 -507.3,25.3 -70.9,1.5 -127.9,54.4 -129.2,120 -2.5,126.6 -12.6,348.1 -48.6,628.6 240.2,-249.6 468.6,-508 685.1,-773.9"
             style="fill:url(#linearGradient28);fill-opacity:1;fill-rule:nonzero;stroke:none"
             id="path30" /></g></g><g
         id="g32"><g
           id="g34"
           clip-path="url(#clipPath38)"><path
             d="M 31141.4,8257.6 H 6500.83 c -250.6,0 -455.65,204.9 -455.65,455.2 l -62.8,2655.8 -275.6,11655.6 c -7.43,314.1 114.41,617.6 337.09,839.6 215.64,214.9 507.54,335.2 811.35,335.2 9.91,0 19.86,-0.1 29.81,-0.4 l 5121.87,-132.5 c 13.1,-183.9 41.6,-366 85.9,-544.6 l -5113.07,137.2 c -7.21,0.2 -14.42,0.3 -21.62,0.3 -213.19,0 -417.99,-84.6 -569.35,-235.5 -156.47,-156.1 -242.52,-369.7 -236.97,-590.6 L 6495.03,9149.6 c 0,-237.1 193.99,-431.1 431.09,-431.1 H 30547.1 c 237.1,0 431.1,194 431.1,431.1 l 185.6,12331.5 61.2,-0.5 c 3.4,-0.1 6.9,-0.1 10.3,-0.1 196.7,0 384.4,47.1 548.5,131.2 l -115.8,-7999 -71,-4899.9 c 0,-250.3 -205,-455.2 -455.6,-455.2"
             style="fill:url(#linearGradient44);fill-opacity:1;fill-rule:nonzero;stroke:none"
             id="path46" /></g></g><g
         id="g48"><g
           id="g50"
           clip-path="url(#clipPath54)"><path
             d="m 6926.12,8718.5 c -237.1,0 -431.09,194 -431.09,431.1 l -343.24,13683.3 c -5.55,220.9 80.5,434.5 236.97,590.6 151.36,150.9 356.16,235.5 569.35,235.5 7.2,0 14.41,-0.1 21.62,-0.3 l 5113.07,-137.2 c 82.9,-334.5 221.1,-655.8 416.1,-948.1 -2468.3,59.9 -4294.23,105.6 -4431.47,116.8 -62.6,5 -122.73,8.1 -180.24,8.1 -814.18,0 -1117.29,-601 -869.97,-4427.9 149.22,-2309.2 189.5,-6123.1 243.87,-7875.2 16.19,-521.8 442.63,-935.7 964.6,-937.2 3944.91,-10.8 19064.31,-54.1 20070.81,-84.1 135.7,-4 262.2,-6.2 379.6,-6.2 885.1,0 1260.1,123 1251.5,495 -24.8,1062.4 -15.6,10470.8 45.4,11283.4 9.9,131.6 -15,245.9 -72,345.4 l 868.5,-7.2 -53,-3609.4 c -0.3,-18.8 14.7,-34.2 33.5,-34.5 h 0.5 c 18.5,0 33.7,14.9 33.9,33.5 l 53,3609.8 316.4,-2.6 -185.6,-12331.5 c 0,-237.1 -194,-431.1 -431.1,-431.1 H 6926.12 m 23812.58,7677.6 c -17.6,-0.3 -34.2,-14.7 -34.4,-33.4 l -15.3,-1042.5 c -0.3,-18.8 14.7,-34.2 33.4,-34.5 h 0.5 c 18.6,0 33.7,14.9 34,33.5 l 15.3,1042.5 c 0.3,18.7 -14.7,34.2 -33.5,34.4"
             style="fill:url(#linearGradient60);fill-opacity:1;fill-rule:nonzero;stroke:none"
             id="path62" /></g></g><g
         id="g64"><g
           id="g66"
           clip-path="url(#clipPath70)"><path
             d="m 30722.9,15285.7 h -0.5 c -18.7,0.3 -33.7,15.7 -33.4,34.5 l 15.3,1042.5 c 0.2,18.7 16.8,33.1 34.4,33.4 18.8,-0.2 33.8,-15.7 33.5,-34.4 l -15.3,-1042.5 c -0.3,-18.6 -15.4,-33.5 -34,-33.5"
             style="fill:url(#linearGradient76);fill-opacity:1;fill-rule:nonzero;stroke:none"
             id="path78" /></g></g><g
         id="g80"><g
           id="g82"
           clip-path="url(#clipPath86)"><path
             d="m 30760.5,17840.4 h -0.5 c -18.8,0.3 -33.8,15.7 -33.5,34.5 l 53,3609.4 67.9,-0.6 -53,-3609.8 c -0.2,-18.6 -15.4,-33.5 -33.9,-33.5"
             style="fill:url(#linearGradient92);fill-opacity:1;fill-rule:nonzero;stroke:none"
             id="path94" /></g></g><g
         id="g96"><g
           id="g98"
           clip-path="url(#clipPath102)"><path
             d="m 28686.1,9367.7 c -117.4,0 -243.9,2.2 -379.6,6.2 -1006.5,30 -16125.9,73.3 -20070.81,84.1 -521.97,1.5 -948.41,415.4 -964.6,937.2 -54.37,1752.1 -94.65,5566 -243.87,7875.2 -247.32,3826.9 55.79,4427.9 869.97,4427.9 57.51,0 117.64,-3.1 180.24,-8.1 137.24,-11.2 1963.17,-56.9 4431.47,-116.8 130.6,-195.8 286.6,-378.5 468.6,-543.7 283.6,-257.3 663.8,-402.7 1061.1,-406 L 29911,21491.5 c 57,-99.5 81.9,-213.8 72,-345.4 -61,-812.6 -70.2,-10221 -45.4,-11283.4 8.6,-372 -366.4,-495 -1251.5,-495 m -20620.77,2373 c -63.51,0 -115,-51.5 -115,-115 v -1375.3 c 0,-63.5 51.49,-115 115,-115 H 28703.9 c 63.5,0 115,51.5 115,115 v 1375.3 c 0,63.5 -51.5,115 -115,115 H 8065.33 m 9484.57,2311.6 v -1958.4 h 11269 v 1958.4 h -11269 m -9599.57,3017.9 v -4976.3 h 8893.17 v 4976.3 H 7950.33 m 90,4398.4 c -49.71,0 -90,-40.2 -90,-89.9 v -1425.3 c 0,-49.7 40.29,-90 90,-90 H 27091.5 c 49.7,0 90,40.3 90,90 v 1425.3 c 0,49.7 -40.3,89.9 -90,89.9 H 8040.33"
             style="fill:url(#linearGradient108);fill-opacity:1;fill-rule:nonzero;stroke:none"
             id="path110" /></g></g><g
         id="g112"><g
           id="g114"
           clip-path="url(#clipPath118)"><path
             d="M 4486.39,7534.9 H 32572.8 c 41.2,0 75,33.7 75,75 V 8704 c 0,41.3 -33.8,75 -75,75 H 4486.39 c -41.28,0 -75.05,-33.7 -75.05,-75 V 7609.9 c 0,-41.3 33.77,-75 75.05,-75"
             style="fill:url(#linearGradient124);fill-opacity:1;fill-rule:nonzero;stroke:none"
             id="path126" /></g></g><g
         id="g128"><g
           id="g130"
           clip-path="url(#clipPath134)"><path
             d="M 27091.5,19863.4 H 8040.33 c -49.71,0 -90,40.3 -90,90 v 1425.3 c 0,49.7 40.29,89.9 90,89.9 H 27091.5 c 49.7,0 90,-40.2 90,-89.9 v -1425.3 c 0,-49.7 -40.3,-90 -90,-90"
             style="fill:url(#linearGradient140);fill-opacity:1;fill-rule:nonzero;stroke:none"
             id="path142" /></g></g><g
         id="g144"><g
           id="g146"
           clip-path="url(#clipPath150)"><path
             d="M 28703.9,10135.4 H 8065.33 c -63.51,0 -115,51.5 -115,115 v 1375.3 c 0,63.5 51.49,115 115,115 H 28703.9 c 63.5,0 115,-51.5 115,-115 v -1375.3 c 0,-63.5 -51.5,-115 -115,-115"
             style="fill:url(#linearGradient156);fill-opacity:1;fill-rule:nonzero;stroke:none"
             id="path158" /></g></g><g
         id="g160"><g
           id="g162"
           clip-path="url(#clipPath166)"><path
             d="m 17549.9,12093.9 h 11269 v 1958.4 h -11269 z"
             style="fill:url(#linearGradient172);fill-opacity:1;fill-rule:nonzero;stroke:none"
             id="path174" /></g></g><path
         d="M 16843.5,18771.8 H 7950.33 v 417.4 h 8893.17 v -417.4"
         style="fill:#ffffff;fill-opacity:1;fill-rule:nonzero;stroke:none"
         id="path176" /><path
         d="M 16843.5,18065.5 H 7950.33 v 417.3 h 8893.17 v -417.3"
         style="fill:#ffffff;fill-opacity:1;fill-rule:nonzero;stroke:none"
         id="path178" /><path
         d="M 16843.5,17359.1 H 7950.33 v 417.4 h 8893.17 v -417.4"
         style="fill:#ffffff;fill-opacity:1;fill-rule:nonzero;stroke:none"
         id="path180" /><g
         id="g182"><g
           id="g184"
           clip-path="url(#clipPath188)"><path
             d="m 7950.33,12093.9 h 8893.17 v 4976.3 H 7950.33 Z"
             style="fill:url(#linearGradient194);fill-opacity:1;fill-rule:nonzero;stroke:none"
             id="path196" /></g></g><path
         d="m 28568.5,27902.8 c -70.9,1.5 -127.9,54.4 -129.2,120 -13.3,671.8 -239.9,4007.9 -3417.2,4705.1 -3537.4,776.1 -5156.1,-2550.2 -5156.1,-2550.2 0,0 -4376.7,1552.3 -5216.1,-2605.6 -2744.3,-609.1 -3457.3,-3923 -1672.4,-5542.4 283.6,-257.3 663.8,-402.7 1061.1,-406 L 31225,21480.6 c 504.4,-4.2 951.7,301 1095,748.3 536.8,1675.4 1240.5,5565.8 -3751.5,5673.9"
         style="fill:#7d97f4;fill-opacity:1;fill-rule:nonzero;stroke:none"
         id="path198" /><path
         d="m 28175.7,27831.5 c -70.8,1.6 -127.7,54.3 -129.2,119.7 -14,644.4 -238.5,3737.9 -3231,4386.3 -3344.8,724.8 -4875.4,-2381.4 -4875.4,-2381.4 0,0 -4138.5,1449.5 -4932.2,-2433.3 -2570,-563.3 -3256,-3604.3 -1629.3,-5131.7 285.2,-267.8 673.6,-420 1080,-423.3 l 16178.7,-133.1 c 505.5,-4.2 953.5,302.5 1095.8,751.1 504.5,1591.1 1103.3,5142.5 -3557.4,5245.7"
         style="fill:#91b3fa;fill-opacity:1;fill-rule:nonzero;stroke:none"
         id="path200" /><g
         id="g202"><g
           id="g204"
           clip-path="url(#clipPath208)"><path
             d="m 31974.1,28152.3 c -28.2,0 -55,12 -73.9,32.5 -9.4,10.2 -16.8,22.5 -21.4,36.6 -33.5,102.4 -72,204.7 -114.4,304 -21.8,50.9 1.9,109.9 52.9,131.5 12.8,5.5 26.1,8.1 39.3,8.1 38.9,0 76,-22.8 92.3,-60.9 44.6,-104.7 85.2,-212.4 120.5,-320.2 17.3,-52.6 -11.4,-109.3 -64,-126.5 -10.4,-3.5 -20.9,-5.1 -31.3,-5.1 m -364.1,794.3 c -27.6,0 -54.6,11.3 -73.9,32.3 -4.5,4.9 -8.6,10.2 -12.1,16.1 -55.7,92.4 -116.1,183.5 -179.5,270.9 -32.6,44.9 -22.6,107.6 22.2,140.1 17.9,12.9 38.5,19.2 59,19.2 31.1,0 61.6,-14.4 81.1,-41.5 66.7,-92 130.3,-187.9 188.9,-285 28.6,-47.5 13.4,-109.1 -34,-137.7 -16.2,-9.8 -34.1,-14.4 -51.7,-14.4"
             style="fill:url(#linearGradient214);fill-opacity:1;fill-rule:nonzero;stroke:none"
             id="path216" /></g></g><g
         id="g218"><g
           id="g220"
           clip-path="url(#clipPath224)"><path
             d="m 25330.8,29514.3 c -23.6,0 -47.3,8.3 -66.3,25.1 -2.7,2.4 -5.2,4.9 -7.6,7.4 -34.3,37.3 -35.5,95.3 -1.3,134.2 75,84.9 154.7,167.9 237.1,246.5 19.4,18.6 44.3,27.8 69.2,27.8 26.5,0 52.9,-10.4 72.6,-31 l 1.3,-1.5 c 36.9,-40.1 35,-102.5 -4.6,-140.3 -78.2,-74.7 -154,-153.5 -225.2,-234.2 -19.8,-22.5 -47.4,-34 -75.2,-34"
             style="fill:url(#linearGradient230);fill-opacity:1;fill-rule:nonzero;stroke:none"
             id="path232" /></g></g><g
         id="g234"><g
           id="g236"
           clip-path="url(#clipPath240)"><path
             d="m 31078.4,29640.2 c -26.4,0 -52.7,10.3 -72.4,30.9 -74.8,77.9 -153.7,153.4 -234.6,224.6 -2.7,2.4 -5.3,4.9 -7.7,7.5 -34.3,37.3 -35.6,95.1 -1.4,134 19.8,22.6 47.5,34.1 75.3,34.1 23.5,0 47.2,-8.2 66.2,-25 85.2,-74.8 168.3,-154.4 246.9,-236.4 l 1.5,-1.6 c 36.8,-40 35,-102.4 -4.4,-140.2 -19.5,-18.7 -44.5,-27.9 -69.4,-27.9"
             style="fill:url(#linearGradient246);fill-opacity:1;fill-rule:nonzero;stroke:none"
             id="path248" /></g></g><g
         id="g250"><g
           id="g252"
           clip-path="url(#clipPath256)"><path
             d="m 25978.3,30101.1 c -27.4,0 -54.4,11.1 -73.9,32.3 -2.6,2.9 -5.1,6 -7.5,9.2 -32.4,44.9 -22.4,107.6 22.5,140.1 92.3,66.6 188.2,129.9 285.3,188.2 16.2,9.7 34,14.4 51.5,14.4 34,0 67.2,-17.4 86.1,-48.7 28.5,-47.5 13.1,-109.1 -34.3,-137.6 -92.3,-55.4 -183.5,-115.6 -271.1,-178.9 -17.7,-12.9 -38.3,-19 -58.6,-19"
             style="fill:url(#linearGradient262);fill-opacity:1;fill-rule:nonzero;stroke:none"
             id="path264" /></g></g><g
         id="g266"><g
           id="g268"
           clip-path="url(#clipPath272)"><path
             d="m 30406.9,30198.9 c -18.9,0 -38,5.3 -55,16.5 -90.1,59.2 -183.9,115.2 -278.7,166.4 -10.1,5.5 -18.9,12.4 -26.2,20.3 -28.1,30.6 -35.2,76.9 -14.4,115.6 18.2,33.6 52.7,52.6 88.4,52.6 16.1,0 32.4,-3.9 47.5,-12 99.9,-54 198.7,-112.9 293.5,-175.3 46.2,-30.6 59.2,-92.5 28.8,-138.8 -19.2,-29.4 -51.3,-45.3 -83.9,-45.3"
             style="fill:url(#linearGradient278);fill-opacity:1;fill-rule:nonzero;stroke:none"
             id="path280" /></g></g><g
         id="g282"><g
           id="g284"
           clip-path="url(#clipPath288)"><path
             d="m 26738.8,30530.4 c -27.9,0 -54.8,11.7 -73.8,32.4 -7.6,8.2 -13.9,17.9 -18.5,28.7 -21.6,51 2.2,109.9 53.1,131.5 104.5,44.4 212.3,84.7 320.3,120 10.3,3.3 20.8,4.9 31.1,4.9 42.2,0 81.5,-26.9 95.3,-69.2 17.2,-52.6 -11.6,-109.3 -64.2,-126.4 -102.6,-33.5 -204.9,-71.8 -304.1,-113.9 -12.8,-5.4 -26.1,-8 -39.2,-8"
             style="fill:url(#linearGradient294);fill-opacity:1;fill-rule:nonzero;stroke:none"
             id="path296" /></g></g><g
         id="g298"><g
           id="g300"
           clip-path="url(#clipPath304)"><path
             d="m 29628,30593.2 c -11.6,0 -23.4,2 -34.9,6.3 -101.1,37.6 -205.1,71.3 -309,100.1 -18.7,5.2 -34.7,15.4 -46.9,28.7 -22.7,24.7 -32.5,60.1 -22.9,94.8 12.4,44.4 52.7,73.5 96.6,73.5 8.9,0 17.9,-1.2 26.9,-3.7 109.3,-30.4 218.8,-65.8 325.2,-105.4 51.9,-19.4 78.4,-77.1 59,-129 -15,-40.4 -53.3,-65.3 -94,-65.3 m -1932.5,203.9 c -36.1,62.1 -73.7,123.7 -113.4,184.9 104.5,17.9 210.6,31.8 315.9,41.3 3,0.3 6,0.4 9,0.4 51.3,0 95.1,-39.1 99.9,-91.2 5,-55.2 -35.7,-103.9 -90.9,-108.9 -73.3,-6.7 -147.2,-15.5 -220.5,-26.5"
             style="fill:url(#linearGradient310);fill-opacity:1;fill-rule:nonzero;stroke:none"
             id="path312" /></g></g><g
         id="g314"><g
           id="g316"
           clip-path="url(#clipPath320)"><path
             d="m 27576.4,30778.9 c -28.6,0 -55.2,12.3 -73.8,32.5 -12.5,13.6 -21.4,30.8 -24.8,50.3 -9.7,54.5 26.6,106.6 81.2,116.3 7.7,1.4 15.4,2.7 23.1,4 39.7,-61.2 77.3,-122.8 113.4,-184.9 -34,-5.1 -67.8,-10.6 -101.5,-16.6 -5.9,-1.1 -11.8,-1.6 -17.6,-1.6"
             style="fill:url(#linearGradient326);fill-opacity:1;fill-rule:nonzero;stroke:none"
             id="path328" /></g></g><g
         id="g330"><g
           id="g332"
           clip-path="url(#clipPath336)"><path
             d="m 28780.6,30804.5 c -4.4,0 -8.9,0.3 -13.4,0.9 -107.1,14.3 -216,24.1 -323.6,29.3 -27.4,1.3 -51.7,13.6 -69,32.3 -17.5,19.1 -27.7,44.8 -26.3,72.7 2.6,53.7 46.9,95.5 100,95.5 1.7,0 3.3,-0.1 5,-0.1 113.2,-5.5 227.7,-15.9 340.4,-30.9 55,-7.3 93.6,-57.7 86.2,-112.6 -6.7,-50.4 -49.8,-87.1 -99.3,-87.1"
             style="fill:url(#linearGradient342);fill-opacity:1;fill-rule:nonzero;stroke:none"
             id="path344" /></g></g><g
         id="g346"><g
           id="g348"
           clip-path="url(#clipPath352)"><path
             d="m 32132,27466.1 c -28.6,0 -55.2,12.3 -73.7,32.5 -13.4,14.5 -22.6,33.1 -25.5,54.2 -7,51.2 -15.2,103.1 -24.3,154.4 -9.7,54.5 26.6,106.6 81.1,116.3 6,1 11.9,1.6 17.8,1.6 47.6,0 90,-34.2 98.5,-82.8 9.7,-53.8 18.3,-108.4 25.6,-162.4 7.5,-54.8 -30.9,-105.4 -85.7,-112.9 -4.6,-0.6 -9.2,-0.9 -13.8,-0.9"
             style="fill:url(#linearGradient358);fill-opacity:1;fill-rule:nonzero;stroke:none"
             id="path360" /></g></g><g
         id="g362"><g
           id="g364"
           clip-path="url(#clipPath368)"><path
             d="m 31330.3,24515.6 c -21.8,0 -43.7,7 -62.1,21.6 -4.3,3.3 -8.2,7 -11.7,10.9 -32.8,35.6 -35.8,90.7 -4.9,129.9 32.1,40.6 63.8,82.5 94.3,124.6 19.7,27.1 50.3,41.5 81.3,41.5 20.4,0 41,-6.2 58.8,-19.1 45,-32.7 54.8,-95.3 22.3,-140.1 -32.1,-44.3 -65.5,-88.5 -99.2,-131.2 -19.8,-25 -49.2,-38.1 -78.8,-38.1"
             style="fill:url(#linearGradient374);fill-opacity:1;fill-rule:nonzero;stroke:none"
             id="path376" /></g></g><g
         id="g378"><g
           id="g380"
           clip-path="url(#clipPath384)"><path
             d="m 28344.4,23029.2 c -29.1,0 -55.4,12.5 -73.8,32.4 -15.9,17.4 -25.8,40.4 -26.4,65.9 -1.1,55.3 42.9,101.1 98.2,102.3 106.4,2.1 213.7,8.8 319.1,19.8 3.6,0.4 7.1,0.6 10.6,0.6 50.7,0 94.2,-38.3 99.6,-89.9 5.7,-55.1 -34.3,-104.4 -89.4,-110.2 -110.9,-11.6 -223.9,-18.6 -335.8,-20.9 -0.7,0 -1.4,0 -2.1,0 m -532.1,25.4 c -3.8,0 -7.7,0.2 -11.7,0.7 -110.8,12.9 -222.6,30.6 -332.2,52.7 -21.5,4.3 -40.1,15.3 -53.9,30.4 -21,22.8 -31.1,55 -24.6,87.7 9.6,47.6 51.5,80.5 98.2,80.5 6.6,0 13.3,-0.7 20,-2 104.1,-21 210.3,-37.8 315.7,-50.1 55,-6.3 94.4,-56.1 88,-111.2 -5.9,-51.1 -49.3,-88.7 -99.5,-88.7 m 1384.6,86.4 c -28.3,0 -55.1,12.1 -73.8,32.5 -11.1,12 -19.3,26.9 -23.5,43.9 -13.2,53.8 19.7,108.1 73.5,121.3 103.2,25.3 206.4,55.3 306.9,89.2 10.6,3.6 21.4,5.3 32,5.3 41.9,0 81,-26.4 95.1,-68.2 17.7,-52.5 -10.5,-109.4 -63,-127.1 -105.8,-35.7 -214.6,-67.3 -323.2,-94 -8,-2 -16,-2.9 -24,-2.9 m -2222.4,105.6 c -10.9,0 -22,1.8 -33,5.6 -105.6,36.8 -210.8,78.5 -312.7,123.9 -12.9,5.7 -24,13.9 -33,23.7 -26.2,28.5 -34.6,71 -17.8,108.7 16.7,37.4 53.3,59.5 91.7,59.5 13.7,0 27.5,-2.8 40.8,-8.7 96.7,-43.1 196.6,-82.7 297,-117.7 52.3,-18.2 80,-75.4 61.7,-127.7 -14.4,-41.4 -53.2,-67.3 -94.7,-67.3 m 3029.9,190.9 c -27.8,0 -54.8,11.5 -73.9,32.3 -6.2,6.8 -11.6,14.5 -15.9,23.2 -24.7,49.5 -4.6,109.7 44.9,134.5 94.9,47.3 188.9,99.3 279.6,154.6 16.3,10 34.3,14.7 52,14.7 33.9,0 67,-17.2 85.8,-48.1 28.9,-47.3 13.9,-109 -33.4,-137.8 -95.5,-58.2 -194.5,-113 -294.3,-162.9 -14.4,-7.1 -29.7,-10.5 -44.8,-10.5 m -3805.1,179.4 c -18.1,0 -36.4,4.9 -52.9,15.2 -95,59.1 -188.5,122.9 -277.9,189.7 -5.1,3.8 -9.7,8 -13.9,12.5 -32,34.8 -35.8,88.6 -6.5,127.8 19.7,26.4 49.9,40.3 80.5,40.3 20.8,0 41.9,-6.5 59.9,-19.9 84.9,-63.4 173.7,-124 263.9,-180.1 47,-29.4 61.4,-91.1 32.2,-138.2 -19,-30.5 -51.8,-47.3 -85.3,-47.3 m 4527.1,286.8 c -27.2,0 -54.2,11 -73.8,32.3 -1.4,1.5 -2.7,3.1 -4,4.7 -35,43 -28.4,106.1 14.5,141.1 60.7,49.3 120.6,101 178,153.9 20.8,19.1 41.3,38.4 61.6,57.9 19.4,18.6 44.5,27.9 69.5,27.9 26.3,0 52.6,-10.3 72.3,-30.8 39.6,-39.7 37.1,-103.4 -2.8,-141.8 -21.4,-20.5 -43,-40.8 -64.8,-60.9 -60.5,-55.5 -123.5,-110 -187.3,-161.9 -18.6,-15.1 -40.9,-22.4 -63.2,-22.4 m -5202,245.3 c -25.4,0 -50.9,9.6 -70.4,28.9 -46.5,45.8 -92.6,93.6 -137.2,142 -31.2,34 -62,68.6 -92.3,103.9 -36,42 -31.3,105.3 10.7,141.4 19,16.3 42.3,24.2 65.4,24.2 28.3,0 56.4,-11.8 76.1,-34.8 69.9,-81.5 143,-159.8 218.1,-233.9 39.4,-39 39.9,-102.3 1,-141.8 -19.6,-19.9 -45.5,-29.9 -71.4,-29.9 m -542.8,666.7 c -27.5,0 -54.5,11.3 -73.9,32.3 -3.8,4.2 -7.3,8.7 -10.4,13.6 -60.8,93.9 -118.3,191.5 -170.8,290 -26.1,48.8 -7.6,109.6 41.2,135.6 15.1,8 31.2,11.9 47.2,11.9 35.9,0 70.6,-19.3 88.5,-53.1 49.9,-93.6 104.5,-186.2 162.3,-275.5 30.1,-46.5 16.7,-108.6 -29.7,-138.7 -16.9,-10.9 -35.8,-16.1 -54.4,-16.1 m -384.7,769 c -28.1,0 -55,11.9 -73.9,32.4 -8.6,9.4 -15.5,20.6 -20.2,33.3 -38.6,104.9 -73.2,212.7 -102.8,320.4 -14.7,53.4 16.7,108.6 70.1,123.3 8.9,2.4 17.9,3.6 26.7,3.6 44,0 84.3,-29.2 96.6,-73.7 28.1,-102.3 60.9,-204.7 97.6,-304.3 19.2,-52 -7.5,-109.7 -59.5,-128.8 -11.4,-4.2 -23.1,-6.2 -34.6,-6.2"
             style="fill:url(#linearGradient390);fill-opacity:1;fill-rule:nonzero;stroke:none"
             id="path392" /></g></g><g
         id="g394"><g
           id="g396"
           clip-path="url(#clipPath400)"><path
             d="m 24390.6,26422 c -28.7,0 -55.2,12.3 -73.7,32.5 -13.5,14.6 -22.8,33.4 -25.6,54.7 -7.1,53.8 -13.2,108.8 -18.1,163.4 -5,55.2 35.7,103.9 90.9,108.9 3.1,0.3 6.1,0.4 9.1,0.4 51.3,0 95.1,-39.1 99.8,-91.3 4.6,-51.9 10.4,-104.1 17.1,-155.3 7.3,-54.8 -31.4,-105.2 -86.3,-112.5 -4.4,-0.5 -8.8,-0.8 -13.2,-0.8"
             style="fill:url(#linearGradient406);fill-opacity:1;fill-rule:nonzero;stroke:none"
             id="path408" /></g></g><g
         id="g410"><g
           id="g412"
           clip-path="url(#clipPath416)"><path
             d="m 25264.7,27142.1 c -2.8,-19.7 7.2,-39.2 25,-48.3 l 507.3,-260.9 c 23.2,-265.4 88.9,-529 198.8,-780.2 l -320.2,-471.7 c -11.2,-16.6 -10.7,-38.4 1.3,-54.4 l 410,-547.8 c 12,-16 32.8,-22.7 51.9,-16.6 l 542.8,174.2 c 210,-176.3 444.4,-313.6 692.5,-410.7 l 107.3,-560.3 c 3.8,-19.6 19.6,-34.7 39.4,-37.5 l 677.3,-97.5 c 19.8,-2.8 39.2,7.2 48.3,25 l 260.9,507.3 c 265.4,23.2 529,88.9 780.2,198.8 l 471.7,-320.1 c 16.6,-11.3 38.4,-10.8 54.4,1.2 l 547.9,410.1 c 16,11.9 22.6,32.8 16.5,51.8 l -174.2,542.9 c 176.3,210 313.6,444.4 410.7,692.5 l 560.3,107.2 c 19.6,3.8 34.7,19.6 37.6,39.4 l 97.4,677.3 c 2.9,19.8 -7.2,39.2 -25,48.4 l -507.3,260.8 c -23.2,265.4 -88.9,529 -198.8,780.2 l 320.2,471.8 c 11.2,16.5 10.7,38.3 -1.3,54.4 l -410,547.8 c -12,16 -32.8,22.6 -51.9,16.5 l -542.8,-174.1 c -210,176.2 -444.4,313.5 -692.5,410.6 l -107.3,560.3 c -3.8,19.6 -19.6,34.7 -39.4,37.6 l -677.3,97.4 c -19.8,2.9 -39.2,-7.2 -48.3,-24.9 l -260.9,-507.4 c -265.4,-23.2 -529,-88.9 -780.2,-198.8 l -471.7,320.2 c -16.6,11.2 -38.4,10.7 -54.4,-1.3 l -547.9,-410 c -16,-12 -22.6,-32.8 -16.5,-51.9 l 174.2,-542.8 c -176.3,-210 -313.6,-444.4 -410.7,-692.5 l -560.3,-107.3 c -19.6,-3.7 -34.7,-19.6 -37.6,-39.4 l -97.4,-677.3"
             style="fill:url(#linearGradient422);fill-opacity:1;fill-rule:nonzero;stroke:none"
             id="path424" /></g></g><path
         d="m 28676.3,27409.1 c -17.6,19.1 -36.5,37 -57,53.6 -226,183.1 -558.7,148.2 -741.8,-77.7 -183.1,-225.9 -148.3,-558.7 77.7,-741.8 225.9,-183 558.7,-148.2 741.8,77.7 88.7,109.5 129.4,246.9 114.7,387 -11.9,113.9 -59.3,218.5 -135.4,301.2 z m -895.7,-821.4 c -227,246.8 -245,630.2 -27.8,898.3 238.8,294.7 672.8,340.1 967.5,101.4 142.8,-115.7 231.9,-280 251,-462.7 19.2,-182.8 -34,-362 -149.6,-504.7 -238.8,-294.7 -672.8,-340.2 -967.5,-101.4 -26.5,21.5 -51.1,44.7 -73.6,69.1"
         style="fill:#91b3fa;fill-opacity:1;fill-rule:nonzero;stroke:none"
         id="path426" /><path
         d="m 27058.8,25905 c -39,42.4 -76,86.9 -111,133.7 -11,14.7 -21.8,29.6 -32.3,44.6 -52,74.3 -97.9,152.5 -137.2,233.6 -0.5,1.1 -1,2.2 -1.6,3.3 -1.5,3.2 -3,6.3 -4.5,9.5 -2.9,6.1 -5.7,12.2 -8.6,18.4 -7.4,16.2 -3.1,34.8 9.3,46.2 3,2.8 6.5,5.2 10.5,7 20.1,9.2 43.9,0.3 53.1,-19.7 47.6,-103.7 106.6,-202.8 175.5,-294.8 342,-457.1 882,-680.5 1413,-640.6 295.4,22.2 587.9,125.9 842.1,316.1 44.6,33.4 87.2,68.8 127.6,105.9 272.1,250.3 448.3,583.7 501.7,954.5 61.3,425.9 -47,850.2 -304.9,1194.7 -532.5,711.5 -1543.9,856.7 -2255.1,324.5 -43.8,-32.9 -85.8,-67.8 -125.9,-104.6 -173.5,-159.6 -310.2,-355.5 -399.5,-573.9 -2.4,-5.6 -5.8,-10.5 -10,-14.3 -11.1,-10.2 -27.5,-13.7 -42.3,-7.7 -20.5,8.5 -30.4,31.8 -22,52.4 93.8,229.3 237.3,434.9 419.5,602.5 42,38.7 86.1,75.3 132.1,109.8 746.7,558.8 1808.8,405.8 2367.5,-340.6 270.7,-361.6 384.3,-807.1 320,-1254.2 -56,-389.3 -241.1,-739.3 -526.7,-1002 -42.4,-39 -87.1,-76.2 -133.9,-111.2 -361.7,-270.7 -807.1,-384.3 -1254.3,-320 -389.3,56 -739.4,241.1 -1002.1,526.9"
         style="fill:#91b3fa;fill-opacity:1;fill-rule:nonzero;stroke:none"
         id="path428" /><g
         id="g430"><g
           id="g432"
           clip-path="url(#clipPath436)"><path
             d="m 21040.7,30257.2 c -10.9,0 -21.9,2.9 -31.9,8.9 -5.2,3.1 -9.7,6.9 -13.6,11.2 -18.2,19.7 -22,49.7 -7.5,73.8 27.1,45.1 56,89.9 85.8,133.3 12,17.5 31.3,26.9 51.1,26.9 12,0 24.3,-3.5 35,-10.9 28.3,-19.3 35.3,-57.9 16,-86.1 -28.4,-41.4 -55.9,-84.1 -81.8,-127.1 -11.6,-19.3 -32.1,-30 -53.1,-30"
             style="fill:url(#linearGradient442);fill-opacity:1;fill-rule:nonzero;stroke:none"
             id="path444" /></g></g><g
         id="g446"><g
           id="g448"
           clip-path="url(#clipPath452)"><path
             d="m 25484.4,30313.1 c -17,0 -33.7,7 -45.6,19.9 -2.4,2.7 -4.7,5.6 -6.7,8.7 -48.5,76.1 -102.1,151 -159.3,222.4 -8.5,10.8 -17.1,21.4 -25.8,31.8 -21.8,26.4 -18.1,65.5 8.2,87.3 11.7,9.6 26,14.4 40.1,14.4 17.9,0 35.5,-7.6 47.1,-22.6 9.3,-11.2 18.4,-22.4 27.4,-33.8 59.7,-74.6 115.8,-153 166.7,-232.9 18.4,-28.9 10,-67.1 -18.9,-85.5 -10.3,-6.6 -21.8,-9.7 -33.2,-9.7 m -4161.5,328.1 c -14.6,0 -29.3,5.1 -41.1,15.6 -1.6,1.4 -3.1,2.9 -4.5,4.4 -21.3,23.1 -22,59 -0.7,83 60.1,67.7 124.3,133.1 191,194.4 14,12.9 28.2,25.7 42.6,38.4 11.4,10 25.6,14.7 39.7,14.7 17.7,0 35.3,-7.3 47.7,-20.2 22.7,-25.7 20.2,-64.8 -5.5,-87.5 -13.7,-12.1 -27.3,-24.3 -40.7,-36.6 -63.5,-58.4 -124.8,-120.8 -182.1,-185.4 -12.3,-13.8 -29.3,-20.8 -46.4,-20.8 m 3752,167.8 c -15.3,0 -30.6,5.7 -42.6,17 -76.1,72.1 -157.3,139.9 -241.3,201.6 -3.3,2.4 -6.2,5.1 -8.9,8 -19.7,21.4 -22.1,54.3 -4.3,78.6 12.2,16.5 30.9,25.2 50,25.2 12.7,0 25.6,-3.9 36.6,-12 88.1,-64.7 173.2,-135.9 253.1,-211.4 24.5,-24 25.9,-62.8 2.4,-87.6 -12.2,-12.9 -28.6,-19.4 -45,-19.4 m -3269.5,257.5 c -16.9,0 -33.6,6.9 -45.6,19.9 -2,2.2 -3.9,4.5 -5.5,7 -19.4,28.2 -12.2,66.8 16.1,86.1 90.5,62.1 185.7,119 282.9,169.3 9,4.7 18.7,6.9 28.3,6.9 22.4,0 44.1,-12.3 55.1,-33.4 15.8,-30.5 3.9,-67.8 -26.5,-83.5 -92.7,-48 -183.5,-102.4 -269.8,-161.5 -10.7,-7.3 -22.9,-10.8 -35,-10.8 m 2751.4,123.4 c -10.2,0 -20.6,2.5 -30.1,7.9 -91.1,51 -186.4,96.8 -283.2,136.1 -8.8,3.6 -16.3,8.9 -22.3,15.5 -15.7,17 -21.1,42.3 -11.8,65.2 9.8,24.1 33,38.7 57.4,38.7 7.8,0 15.7,-1.5 23.3,-4.6 101.6,-41.3 201.5,-89.3 297,-142.8 29.9,-16.8 40.5,-54.5 23.8,-84.3 -11.3,-20.3 -32.4,-31.7 -54.1,-31.7 m -2180.1,171.9 c -17.3,0 -33.9,7.4 -45.6,20.1 -5.4,5.8 -9.7,12.7 -12.6,20.5 -11.8,32.1 4.7,67.7 36.8,79.5 102.8,37.9 209.1,69.8 316,94.6 4.8,1.1 9.5,1.7 14.2,1.7 28.1,0 53.5,-19.3 60.2,-47.9 7.7,-33.3 -13,-66.6 -46.3,-74.4 -101.9,-23.8 -203.3,-54.1 -301.3,-90.2 -7.1,-2.6 -14.3,-3.9 -21.4,-3.9 m 1584.9,70.2 c -5.3,0 -10.7,0.7 -16.1,2.1 -100.9,27.1 -204.5,48.3 -308.1,63 -14.7,2.1 -27.5,9.2 -36.9,19.4 -12.1,13.2 -18.4,31.5 -15.7,50.6 4.3,30.9 30.9,53.3 61.2,53.3 2.9,0 5.8,-0.2 8.8,-0.6 108.5,-15.4 217.2,-37.6 322.9,-66.1 33.1,-8.8 52.6,-42.8 43.7,-75.9 -7.4,-27.6 -32.5,-45.8 -59.8,-45.8 m -958.6,75.8 c -17.8,0 -34.1,7.7 -45.5,20.1 -8.7,9.4 -14.5,21.6 -16,35.3 -3.6,34.1 21.1,64.6 55.1,68.2 93.3,9.8 187.9,14.8 281.7,14.8 16,0 31.9,-0.1 47.8,-0.4 34.2,-0.7 61.3,-29 60.7,-63.1 -0.5,-33.8 -28.2,-60.8 -61.9,-60.8 -0.4,0 -0.7,0 -1.1,0 -15.3,0.3 -30.6,0.4 -45.9,0.4 -89.4,0 -179.4,-4.7 -268.3,-14.1 -2.2,-0.3 -4.4,-0.4 -6.6,-0.4"
             style="fill:url(#linearGradient458);fill-opacity:1;fill-rule:nonzero;stroke:none"
             id="path460" /></g></g><g
         id="g462"><g
           id="g464"
           clip-path="url(#clipPath468)"><path
             d="m 23282.1,26295.8 c -77,0 -154.3,3.2 -230.9,9.8 -16,1.4 -30.2,8.8 -40.3,19.8 -11.3,12.3 -17.6,29.2 -16.1,47.2 2.8,32.3 29.8,56.7 61.6,56.7 1.8,0 3.6,-0.1 5.4,-0.2 73.2,-6.3 147.2,-9.5 220.8,-9.5 29.6,0 59.1,0.5 88.5,1.6 0.7,0 1.5,0 2.2,0 33.3,0 60.7,-26.4 61.9,-59.8 1.2,-34.2 -25.6,-62.8 -59.7,-64 -31.1,-1.1 -62.2,-1.6 -93.4,-1.6 m 406.7,31.8 c -17.7,0 -34.1,7.6 -45.6,20.1 -8,8.6 -13.6,19.7 -15.5,32.2 -5.4,33.8 17.7,65.5 51.5,70.9 101.8,15.9 203.5,38.3 302.2,66.5 5.6,1.6 11.3,2.4 16.9,2.4 27,0 51.9,-17.7 59.6,-45 9.4,-32.9 -9.6,-67.1 -42.5,-76.5 -103.6,-29.5 -210.2,-53.1 -316.9,-69.9 -3.3,-0.5 -6.5,-0.7 -9.7,-0.7 m -945.7,24 c -4.2,0 -8.4,0.4 -12.7,1.3 -105.5,22.1 -210.8,50.9 -312.8,85.5 -10.2,3.5 -18.9,9.4 -25.6,16.7 -14.9,16.2 -20.7,39.7 -13.1,61.9 8.7,25.8 32.8,42.1 58.6,42.1 6.6,0 13.3,-1.1 19.9,-3.3 97.4,-33.1 197.7,-60.6 298.4,-81.6 33.5,-7 54.9,-39.8 47.9,-73.3 -6.1,-29.2 -31.9,-49.3 -60.6,-49.3 m -598.8,203.3 c -9,0 -18.1,2 -26.8,6.1 -96.9,46.7 -192.2,100 -283.1,158.3 -4.6,3 -8.7,6.4 -12.2,10.3 -18.6,20.2 -22,51.1 -6.5,75.3 11.8,18.4 31.8,28.5 52.2,28.5 11.4,0 23,-3.2 33.3,-9.8 86.8,-55.6 177.6,-106.4 270.1,-151 30.8,-15 43.8,-51.8 28.9,-82.6 -10.7,-22.2 -32.8,-35.1 -55.9,-35.1 m -532.1,341.8 c -14,0 -28,4.7 -39.6,14.3 -82.7,68.8 -162.3,143.5 -236.4,222 l -0.5,0.6 c -22.9,24.9 -21.6,63.7 3.1,87 11.9,11.3 27.2,16.8 42.5,16.8 16.4,0 32.8,-6.5 45,-19.4 70.7,-74.9 146.5,-146.1 225.5,-211.7 25.9,-21.9 29.9,-60.9 8,-87.2 -12.2,-14.8 -29.9,-22.4 -47.6,-22.4 m -434.2,460.1 c -16.9,0 -33.6,6.8 -45.6,19.9 -1.5,1.7 -2.9,3.4 -4.3,5.2 -64.1,86.7 -123.5,178.2 -176.8,271.9 -16.8,29.8 -6.4,67.6 23.3,84.4 9.6,5.5 20.1,8.1 30.5,8.1 21.6,0 42.6,-11.3 54,-31.3 50.7,-89.4 107.5,-176.7 168.7,-259.5 20.3,-27.5 14.5,-66.3 -13,-86.6 -11.1,-8.2 -24,-12.1 -36.8,-12.1 m -312,550.4 c -17.3,0 -33.9,7.2 -45.7,20 -4.7,5.2 -8.7,11.3 -11.6,18.2 -41.4,99.6 -77,202.8 -105.9,306.7 -9.2,33 10.1,67.1 43.1,76.3 5.5,1.5 11,2.3 16.5,2.3 27.1,0 52,-18 59.7,-45.3 27.6,-99.1 61.6,-197.5 101,-292.5 13.1,-31.6 -1.8,-67.9 -33.4,-81 -7.8,-3.2 -15.8,-4.7 -23.7,-4.7"
             style="fill:url(#linearGradient474);fill-opacity:1;fill-rule:nonzero;stroke:none"
             id="path476" /></g></g><g
         id="g478"><g
           id="g480"
           clip-path="url(#clipPath484)"><path
             d="m 20695.7,28519.6 c -17.7,0 -34.1,7.6 -45.6,20 -8.1,8.8 -13.7,20.1 -15.6,32.8 -7.9,52.4 -14.2,105.3 -18.9,157.2 -3,34.1 22.1,64.2 56.2,67.2 1.8,0.2 3.6,0.3 5.4,0.3 31.8,0 58.9,-24.2 61.8,-56.4 4.4,-49.5 10.5,-100 18,-150 5.1,-33.9 -18.3,-65.4 -52.1,-70.4 -3.1,-0.5 -6.2,-0.7 -9.2,-0.7"
             style="fill:url(#linearGradient490);fill-opacity:1;fill-rule:nonzero;stroke:none"
             id="path492" /></g></g><g
         id="g494"><g
           id="g496"
           clip-path="url(#clipPath500)"><path
             d="m 21274,29043.3 c -1.9,-13.2 4.8,-26.2 16.7,-32.3 l 339.5,-174.6 c 15.5,-177.6 59.4,-354 133,-522.1 l -214.2,-315.6 c -7.6,-11.1 -7.2,-25.7 0.8,-36.4 l 274.4,-366.6 c 8,-10.7 21.9,-15.2 34.7,-11.1 l 363.2,116.6 c 140.5,-118 297.4,-209.9 463.4,-274.8 l 71.8,-375 c 2.5,-13.1 13.1,-23.2 26.3,-25.1 l 453.2,-65.2 c 13.3,-1.9 26.3,4.8 32.4,16.7 l 174.6,339.5 c 177.6,15.5 354,59.5 522,133 l 315.7,-214.2 c 11.1,-7.5 25.7,-7.2 36.4,0.8 l 366.6,274.4 c 10.7,8 15.1,22 11.1,34.7 l -116.6,363.2 c 117.9,140.6 209.8,297.4 274.8,463.4 l 374.9,71.8 c 13.2,2.5 23.3,13.1 25.2,26.4 l 65.2,453.2 c 1.9,13.2 -4.8,26.2 -16.7,32.3 l -339.5,174.6 c -15.5,177.6 -59.5,354 -133,522.1 l 214.2,315.6 c 7.5,11.1 7.2,25.7 -0.9,36.4 l -274.3,366.6 c -8,10.7 -22,15.2 -34.7,11.1 l -363.3,-116.5 c -140.5,117.9 -297.4,209.8 -463.4,274.7 l -71.8,375 c -2.5,13.1 -13.1,23.2 -26.3,25.1 l -453.2,65.2 c -13.3,1.9 -26.3,-4.8 -32.4,-16.7 l -174.5,-339.5 c -177.6,-15.5 -354,-59.5 -522.1,-133 l -315.7,214.2 c -11,7.5 -25.7,7.2 -36.4,-0.8 l -366.6,-274.4 c -10.7,-8 -15.1,-21.9 -11,-34.7 l 116.5,-363.2 c -117.9,-140.6 -209.8,-297.4 -274.8,-463.4 l -374.9,-71.8 c -13.1,-2.5 -23.2,-13.1 -25.1,-26.4 l -65.2,-453.2"
             style="fill:url(#linearGradient506);fill-opacity:1;fill-rule:nonzero;stroke:none"
             id="path508" /></g></g><path
         d="m 23550.4,29216.8 c -11.3,12.3 -23.6,23.8 -36.9,34.7 -147.7,119.6 -365.1,96.8 -484.8,-50.9 -57.9,-71.5 -84.6,-161.3 -74.9,-252.8 9.6,-91.6 54.3,-173.9 125.7,-231.9 71.6,-58 161.4,-84.6 252.9,-75 91.6,9.6 173.9,54.3 231.9,125.8 108.8,134.3 99.8,326.4 -13.9,450.1 z m -599.5,-549.6 c -67.6,73.6 -109.8,166.5 -120.4,267.7 -13,124.4 23.2,246.5 102,343.7 162.6,200.7 458.2,231.7 659,69.1 200.7,-163.2 231.7,-458.3 69,-659 -78.8,-97.3 -190.7,-158 -315.2,-171 -124.4,-13.1 -246.5,23.1 -343.8,102 -18.1,14.7 -35,30.6 -50.6,47.5"
         style="fill:#91b3fa;fill-opacity:1;fill-rule:nonzero;stroke:none"
         id="path510" /><path
         d="m 22447.9,28192.6 c -26.5,28.9 -51.8,59.3 -75.8,91.3 -47.6,63.6 -88.8,132.1 -122.5,203.8 -1.5,3.2 -3,6.4 -4.5,9.7 -11.5,25 -4.9,53.7 14.3,71.4 4.7,4.3 10.1,7.9 16.2,10.7 31.1,14.3 67.7,0.5 82.1,-30.5 30.8,-67.2 69.1,-131.4 113.6,-190.8 v 0 c 2.4,-3.3 4.9,-6.5 7.4,-9.8 106.6,-139.6 244,-247.4 400.2,-317.2 84.9,-37.9 175.3,-64.6 269.5,-79 l 2.3,-0.4 c 2.4,-0.3 4.7,-0.7 7,-1 275.8,-39.7 550.4,30.4 773.5,197.3 28.8,21.6 56.4,44.5 82.6,68.6 176.1,162 290.2,377.8 324.7,617.9 39.7,275.7 -30.4,550.4 -197.3,773.4 -166.9,222.8 -410.7,367.7 -686.5,407.4 -275.7,39.6 -550.4,-30.5 -773.4,-197.4 -28.4,-21.2 -55.6,-43.8 -81.5,-67.6 -112.4,-103.4 -200.8,-230.2 -258.7,-371.6 -3.5,-8.7 -8.8,-16.1 -15.4,-22.1 -17.1,-15.7 -42.4,-21.1 -65.3,-11.8 -31.7,13.1 -46.9,49.1 -33.9,80.9 64.7,158.2 163.7,300 289.4,415.7 29,26.7 59.4,51.9 91.1,75.7 249.6,186.8 556.9,265.2 865.4,220.8 308.5,-44.4 581.3,-206 767.9,-455.8 186.8,-249.5 265.2,-556.8 220.8,-865.3 -38.6,-268.6 -166.3,-510 -363.3,-691.3 -29.3,-26.9 -60.1,-52.5 -92.4,-76.7 -483.1,-361.5 -1157.6,-291.2 -1557.5,143.7"
         style="fill:#91b3fa;fill-opacity:1;fill-rule:nonzero;stroke:none"
         id="path512" /><g
         id="g514"><g
           id="g516"
           clip-path="url(#clipPath520)"><path
             d="m 8935.33,21313.4 c 41.06,634.7 424.34,1196.9 998.84,1469.8 l 7443.23,3535.1 c 476.7,226.4 1029.9,226.4 1506.6,0 l 7443.3,-3535.1 c 574.5,-272.9 957.8,-835.1 998.8,-1469.8 698.2,-10792.1 -6221.6,-14724.3 -8489.9,-15717.6 -449.9,-197 -961,-197 -1410.9,0 -2268.4,993.3 -9188.15,4925.5 -8489.97,15717.6"
             style="fill:url(#linearGradient526);fill-opacity:1;fill-rule:nonzero;stroke:none"
             id="path528" /></g></g><path
         d="m 20382.2,24849.7 c -12.2,0 -24.6,2.6 -36.3,8.2 l -1758.7,835.3 c -42.4,20.1 -60.4,70.7 -40.3,113.1 20.1,42.3 70.8,60.4 113.1,40.3 l 1758.7,-835.3 c 42.3,-20.1 60.4,-70.8 40.2,-113.1 -14.5,-30.6 -44.9,-48.5 -76.7,-48.5"
         style="fill:#91b3fa;fill-opacity:1;fill-rule:nonzero;stroke:none"
         id="path530" /><path
         d="m 26756.9,19024.7 c -0.9,0 -1.9,0 -2.9,0 -46.8,1.6 -83.5,40.8 -82,87.7 23.4,695.6 11.1,1421.1 -36.4,2156.4 -24.8,383 -256.7,723.8 -605.2,889.3 l -5007.1,2378.1 c -42.4,20.1 -60.4,70.7 -40.3,113.1 20.1,42.4 70.7,60.4 113.1,40.3 l 5007.1,-2378.1 c 404.1,-191.9 673,-587.3 701.8,-1031.8 47.9,-740.7 60.2,-1471.9 36.7,-2173 -1.5,-45.9 -39.2,-82 -84.8,-82"
         style="fill:#91b3fa;fill-opacity:1;fill-rule:nonzero;stroke:none"
         id="path532" /><g
         id="g534"><g
           id="g536"
           clip-path="url(#clipPath540)"><path
             d="m 10735.3,20892.2 c 8.2,160.9 104,304.5 249.5,373.7 l 6958.2,3304.7 c 118.8,56.4 256.7,56.4 375.5,0 l 6958.1,-3304.7 c 145.6,-69.2 241.4,-212.8 249.6,-373.7 205.7,-4025.8 -724.1,-7384.8 -2765.8,-9988.2 -1556.6,-1984.9 -3377.5,-3048.6 -4444.5,-3544.8 -117.5,-54.7 -252.8,-54.7 -370.4,0 -1067,496.2 -2887.9,1559.9 -4444.5,3544.8 -2041.6,2603.4 -2971.5,5962.5 -2765.7,9988.2"
             style="fill:url(#linearGradient546);fill-opacity:1;fill-rule:nonzero;stroke:none"
             id="path548" /></g></g><g
         id="g550"><g
           id="g552"
           clip-path="url(#clipPath556)"><path
             d="m 20188.1,16566.9 h 693.4 v 2763.6 c 0,1085.5 -812.5,2002.7 -1890,2133.7 l -1418,172.3 c -610.2,74.2 -1224.2,-117.1 -1684.5,-524.7 -460.2,-407.7 -724.2,-994.2 -724.2,-1609 v -2412.6 h 693.5 v 2412.6 c 0,416.5 178.8,813.7 490.6,1089.8 311.7,276.2 727.6,405.8 1141,355.5 l 1417.9,-172.3 c 729.9,-88.7 1280.3,-710.1 1280.3,-1445.3 v -2763.6"
             style="fill:url(#linearGradient562);fill-opacity:1;fill-rule:nonzero;stroke:none"
             id="path564" /></g></g><g
         id="g566"><g
           id="g568"
           clip-path="url(#clipPath572)"><path
             d="m 21086.6,17187.4 -6079.1,336.8 c -246.9,13.6 -454.6,-182.9 -454.6,-430.2 v -4815.9 c 0,-237.9 192.8,-430.8 430.8,-430.8 h 5933 c 232.4,0 422.9,184.5 430.5,416.8 l 146.1,4479.1 c 7.6,234 -173,431.2 -406.7,444.2"
             style="fill:url(#linearGradient578);fill-opacity:1;fill-rule:nonzero;stroke:none"
             id="path580" /></g></g><g
         id="g582"><g
           id="g584"
           clip-path="url(#clipPath588)"><path
             d="m 17032.2,13227 367.9,1057.8 c 44.2,127.2 14.1,269.4 -80.5,365.2 -188.5,191 -300.9,457.5 -287.6,750 23.5,516 445,934.4 961.2,954.3 571.2,21.9 1041.1,-434.7 1041.1,-1001 0,-314.2 -144.7,-594.4 -371,-778 -117.4,-95.3 -165.7,-251.8 -116,-394.6 L 18879,13227 c 80.7,-232 -91.5,-474.3 -337.1,-474.3 h -1172.6 c -245.6,0 -417.8,242.3 -337.1,474.3"
             style="fill:url(#linearGradient594);fill-opacity:1;fill-rule:nonzero;stroke:none"
             id="path596" /></g></g><g
         id="g598"><g
           id="g600"
           clip-path="url(#clipPath604)"><path
             d="m 4689.44,5478.7 c 0,0 -109.19,-172.1 -136.65,-654 -2.57,-44.9 33,-83.2 77.97,-83.2 h 854.02 c 34.35,0 58.87,33.7 47.88,66.3 -50.04,148.1 -201.36,509.2 -538.98,715.5 l -304.24,-44.6"
             style="fill:url(#linearGradient610);fill-opacity:1;fill-rule:nonzero;stroke:none"
             id="path612" /></g></g><g
         id="g614"><g
           id="g616"
           clip-path="url(#clipPath620)"><path
             d="m 4652.33,5805.2 48.31,-405 c 4.17,-34.9 31.56,-62.9 66.51,-66.9 46.71,-5.4 114.61,-9.2 180.58,1.7 59.98,9.9 103.15,63.3 103.15,124.1 v 391 l -398.55,-44.9"
             style="fill:url(#linearGradient626);fill-opacity:1;fill-rule:nonzero;stroke:none"
             id="path628" /></g></g><g
         id="g630"><g
           id="g632"
           clip-path="url(#clipPath636)"><path
             d="m 6802.4,5523.3 c 0,0 -163.45,-254 -159.96,-602.8 0.83,-82.1 69.6,-147.5 151.75,-147.5 h 1326.36 c 62.11,0 87.32,79.8 36.5,115.5 -250.99,176.2 -744.3,505.5 -1101.09,634.8 H 6802.4"
             style="fill:url(#linearGradient642);fill-opacity:1;fill-rule:nonzero;stroke:none"
             id="path644" /></g></g><g
         id="g646"><g
           id="g648"
           clip-path="url(#clipPath652)"><path
             d="m 6665.81,5960.8 103.03,-500.2 c 11.52,-56 66.26,-93.6 122.01,-81.2 33.89,7.6 73.88,22.1 116.59,48.8 40.62,25.4 61.19,73.7 52.89,120.8 l -106.57,606 -287.95,-194.2"
             style="fill:url(#linearGradient658);fill-opacity:1;fill-rule:nonzero;stroke:none"
             id="path660" /></g></g><path
         d="m 4841.58,12915.4 c 0,0 -358.23,-315.8 -425.65,-695.8 -67.41,-380 191.01,-6555.9 191.01,-6555.9 0,0 358.22,-59.6 542.87,52.3 0,0 219.03,4008.1 385.5,4934.3 0,0 873.06,-4151.8 1114.96,-4902 0,0 345.11,-42 456.4,23.6 0,0 -228.69,5382 -516.05,6338.9 l -1749.04,804.6"
         style="fill:#7d97f4;fill-opacity:1;fill-rule:nonzero;stroke:none"
         id="path662" /><path
         d="m 5524.86,10772.1 c 3.96,0 7.99,0.5 11.98,1.5 25.34,6.6 40.52,32.5 33.92,57.8 l -152.16,583.7 c -2.99,11.6 -10.25,21.5 -20.28,28 l -328.76,210.9 c -21.91,14.2 -51.32,7.7 -65.49,-14.3 -14.14,-22.1 -7.71,-51.4 14.32,-65.5 l 313.14,-200.9 147.5,-565.8 c 5.55,-21.3 24.79,-35.4 45.83,-35.4"
         style="fill:#91b3fa;fill-opacity:1;fill-rule:nonzero;stroke:none"
         id="path664" /><g
         id="g666"><g
           id="g668"
           clip-path="url(#clipPath672)"><path
             d="M 7792.25,16292 C 6390.62,15721.6 6180.21,15265.1 6180.21,15265.1 l 1163.75,-692.7 c 0,0 1308.38,696.2 1885.28,1906.2 -274.01,101 -504.06,249.6 -666.28,373.8 -192.73,-225.3 -443.76,-427.4 -770.71,-560.4"
             style="fill:url(#linearGradient678);fill-opacity:1;fill-rule:nonzero;stroke:none"
             id="path680" /></g></g><g
         id="g682"><g
           id="g684"
           clip-path="url(#clipPath688)"><path
             d="m 8897.47,19334.2 c -23.67,42.2 -88.03,24.3 -86.53,-24 l 14.06,-453.3 c 2.73,-87.6 32.27,-172.2 84.65,-242.4 l 168.28,-182.7 c 70.72,-94.8 97.57,-215.1 73.45,-330.9 -57.73,-277.1 -211.01,-807.4 -588.42,-1248.5 162.22,-124.2 392.27,-272.8 666.28,-373.8 211.67,444 325.01,957.1 238.92,1530.5 65.85,63.5 80.72,163.3 36.29,243.3 l -606.98,1081.8"
             style="fill:url(#linearGradient694);fill-opacity:1;fill-rule:nonzero;stroke:none"
             id="path696" /></g></g><g
         id="g698"><g
           id="g700"
           clip-path="url(#clipPath704)"><path
             d="m 8873.1,15820.7 c -530.88,572 -1542.09,830.5 -2127.55,936.6 -256.5,46.5 -509.34,-96.2 -600.22,-340.5 -263.46,-708.3 -980.03,-2550.9 -1118.92,-2867.6 -113.95,-259.8 -232.92,-513.5 -308.52,-672.1 -45.17,-94.8 -5.7,-208.2 88.88,-253.8 492.57,-237.4 1378.9,-506.1 1738.24,-610.9 79.03,-23 157.73,36.3 157.73,118.7 0,69.8 18.99,138.3 54.92,198.2 l 1360.88,2267.8 c 848.21,-940.5 1591.03,-1026.5 2161.66,-820.7 -96,296.6 -158.7,593.6 -188.9,891.3 -842.97,144.4 -1218.2,1153 -1218.2,1153"
             style="fill:url(#linearGradient710);fill-opacity:1;fill-rule:nonzero;stroke:none"
             id="path712" /></g></g><g
         id="g714"><g
           id="g716"
           clip-path="url(#clipPath720)"><path
             d="m 11484.7,14825.5 -152.1,202.9 c -492.5,-338.3 -904.2,-418.5 -1241.3,-360.7 30.2,-297.7 92.9,-594.7 188.9,-891.3 751.7,271.2 1204.5,1049.1 1204.5,1049.1"
             style="fill:url(#linearGradient726);fill-opacity:1;fill-rule:nonzero;stroke:none"
             id="path728" /></g></g><g
         id="g730"><g
           id="g732"
           clip-path="url(#clipPath736)"><path
             d="m 11377.5,14821.9 857,-33.4 789.2,440.7 c -113.3,71 -753.9,-74.1 -753.9,-74.1 0,0 -669.6,101.2 -850.8,101.5 -150.5,0.2 -129,-216.3 -117.4,-289.6 2.3,-15 4.3,-24 4.3,-24 l 71.6,-121.1"
             style="fill:url(#linearGradient742);fill-opacity:1;fill-rule:nonzero;stroke:none"
             id="path744" /></g></g><g
         id="g746"><g
           id="g748"
           clip-path="url(#clipPath752)"><path
             d="M 7550.83,17807.9 7098.6,16704.4 c 0,0 519.61,-359.7 937.65,-325.4 l 225.7,992.2 -711.12,436.7"
             style="fill:url(#linearGradient758);fill-opacity:1;fill-rule:nonzero;stroke:none"
             id="path760" /></g></g><g
         id="g762"><g
           id="g764"
           clip-path="url(#clipPath768)"><path
             d="m 8314.73,18560.2 c 10.35,-14.7 327.15,-1159.1 327.15,-1159.1 l -657.31,-167 -461.42,1040.1 c 0,0 618.18,531.7 791.58,286"
             style="fill:url(#linearGradient774);fill-opacity:1;fill-rule:nonzero;stroke:none"
             id="path776" /></g></g><g
         id="g778"><g
           id="g780"
           clip-path="url(#clipPath784)"><path
             d="m 7770.67,18116.2 200.03,-566.6 c 2.56,-7.3 6,-14 10.43,-20.3 27.14,-38.5 130.26,-164.4 252.57,-51 110.98,102.8 213.8,195 308.76,211.8 42.63,7.5 83.93,-18.5 95.46,-60.2 28.76,-104 89.22,-339.6 110.55,-552.2 4.32,-43.2 -25.48,-82.2 -68.08,-90.3 -128.39,-24.3 -400.58,-68.2 -627.83,-52.2 -30.79,2.2 -57.88,20.7 -70.73,48.8 -62.63,136.8 -254.51,552 -325.87,659.4 -67,100.9 -231.19,98 -300.06,91.9 -22.59,-2 -44.79,5.3 -61.83,20.3 -60.24,52.8 -174.91,187.6 -13.61,349 33.76,33.8 32.84,88.3 -1.94,121 -69.26,65.1 -143.34,180.6 -27.94,323.9 117.29,145.6 272.13,122.4 367,87.8 38.36,-14 80.21,2.2 101.06,37.3 11.87,20 32.57,35.1 68.48,32 48.39,-4.1 89.06,36.3 88.19,84.8 -1.67,93.3 31.72,211.1 193.55,261.5 287.13,89.4 466.19,-188 483.93,-395 17.73,-207 -299.08,-286.2 -485.39,-272.3 -141.65,10.7 -246.81,-129.7 -289.09,-197.7 -13.4,-21.5 -16.06,-47.8 -7.64,-71.7"
             style="fill:url(#linearGradient790);fill-opacity:1;fill-rule:nonzero;stroke:none"
             id="path792" /></g></g><g
         id="g794"><g
           id="g796"
           clip-path="url(#clipPath800)"><path
             d="m 7730.84,17437.9 c 0,0 -46.39,359.3 -195.87,376.9 -149.49,17.7 -295,-105.2 -146.38,-306.9 184.87,-250.9 342.25,-70 342.25,-70"
             style="fill:url(#linearGradient806);fill-opacity:1;fill-rule:nonzero;stroke:none"
             id="path808" /></g></g></g></g></svg>
